<svg width="322" height="259" viewBox="0 0 322 259" fill="none" xmlns="http://www.w3.org/2000/svg">
<mask id="path-1-inside-1_1418_13689" fill="white">
<path d="M177 102.673L302.101 174.9L177 247.127L51.8989 174.9L177 102.673Z"/>
</mask>
<path d="M177 102.673L302.101 174.9L177 247.127L51.8989 174.9L177 102.673Z" fill="#9FADCC"/>
<path d="M177 102.673L180.753 100.506L177 98.3392L173.247 100.506L177 102.673ZM173.247 104.84L298.348 177.067L305.854 172.733L180.753 100.506L173.247 104.84ZM55.652 177.067L180.753 104.84L173.247 100.506L48.1459 172.733L55.652 177.067Z" fill="#CAD4E8" mask="url(#path-1-inside-1_1418_13689)"/>
<mask id="path-3-inside-2_1418_13689" fill="white">
<path d="M177 102.673L302.101 174.9L177 247.127L51.8989 174.9L177 102.673Z"/>
</mask>
<path d="M177 102.673L302.101 174.9L177 247.127L51.8989 174.9L177 102.673Z" fill="#CBCBCB"/>
<path d="M177 102.673L182.004 99.7838L177 96.8947L171.996 99.7838L177 102.673ZM171.996 105.562L297.097 177.789L307.105 172.011L182.004 99.7838L171.996 105.562ZM56.903 177.789L182.004 105.562L171.996 99.7838L46.8949 172.011L56.903 177.789Z" fill="#636363" mask="url(#path-3-inside-2_1418_13689)"/>
<path d="M176.888 93.2832L283.848 155.037L176.888 216.791L69.9272 155.037L176.888 93.2832Z" fill="white"/>
<rect x="-2.98023e-08" y="0.5" width="100.063" height="100.063" transform="matrix(0.866025 0.5 -0.866025 0.5 177.321 104.755)" fill="white" stroke="#E8BF4B"/>
<g filter="url(#filter0_f_1418_13689)">
<ellipse cx="176.7" cy="161.582" rx="28.9575" ry="20.2633" transform="rotate(30 176.7 161.582)" fill="black"/>
</g>
<path d="M70.3586 169.803L177.285 231.537V247.14L70.3586 185.406L70.3586 169.803Z" fill="url(#paint0_linear_1418_13689)"/>
<path d="M284.211 169.803L177.285 231.537V247.14L284.211 185.406V169.803Z" fill="url(#paint1_linear_1418_13689)"/>
<path d="M70.3586 154L177.285 215.734V231.337L70.3586 169.603L70.3586 154Z" fill="url(#paint2_linear_1418_13689)"/>
<path d="M284.211 154L177.285 215.734V231.337L284.211 169.603V154Z" fill="url(#paint3_linear_1418_13689)"/>
<path d="M181.339 93.6215L183.169 97.5648L188.169 94.6781L181.339 93.6215ZM317.123 172.016L315.293 168.073L310.293 170.96L317.123 172.016ZM317.123 177.233L310.293 178.29L315.293 181.177L317.123 177.233ZM181.339 255.628L188.169 254.572L183.169 251.685L181.339 255.628ZM172.661 255.628L170.831 251.685L165.831 254.572L172.661 255.628ZM36.8766 177.233L38.7067 181.177L43.7067 178.29L36.8766 177.233ZM36.8766 172.017L43.7067 170.96L38.7067 168.073L36.8766 172.017ZM172.661 93.6215L165.831 94.6781L170.831 97.5648L172.661 93.6215ZM184.803 96.1215L312.793 170.016L313.659 169.516L185.669 95.6215L184.803 96.1215ZM312.793 179.233L184.803 253.128L185.669 253.628L313.659 179.733L312.793 179.233ZM169.197 253.128L41.2067 179.233L40.3407 179.733L168.331 253.628L169.197 253.128ZM41.2067 170.017L169.197 96.1215L168.331 95.6215L40.3407 169.517L41.2067 170.017Z" fill="white"/>
<g filter="url(#filter1_i_1418_13689)">
<rect width="79.4498" height="79.4498" transform="matrix(0.866025 0.5 -0.866025 0.5 178.824 95.4497)" fill="white"/>
</g>
<g filter="url(#filter2_bii_1418_13689)">
<rect width="79.4498" height="79.4498" transform="matrix(0.866025 0.5 -2.20305e-08 1 178.635 16)" fill="url(#paint4_linear_1418_13689)" fill-opacity="0.25"/>
<rect width="79.4498" height="79.4498" transform="matrix(0.866025 0.5 -2.20305e-08 1 178.635 16)" stroke="url(#paint5_linear_1418_13689)" stroke-width="1.25101" stroke-linejoin="bevel"/>
</g>
<path d="M170.659 130.343L170.895 130.327L171.023 130.136L207.82 75.0851L208.391 74.2313L207.337 74.2988L196.117 75.0177L195.881 75.0329L195.753 75.2241L158.905 130.278L158.333 131.132L159.388 131.065L170.659 130.343ZM162.579 103.573C168.122 103.218 172.364 101.758 175.096 99.2656C177.847 96.7568 179.013 93.2518 178.5 88.9545L178.486 88.8424C177.971 84.5271 175.99 81.2142 172.686 79.0883C169.404 76.9764 164.88 76.0783 159.337 76.4335C153.818 76.7872 149.577 78.247 146.839 80.7442C144.083 83.2577 142.905 86.7726 143.421 91.0893L143.434 91.2013C143.947 95.5 145.941 98.8022 149.25 100.922C152.538 103.028 157.06 103.926 162.579 103.573ZM161.889 97.7988C159.741 97.9365 158.081 97.4236 156.895 96.3839C155.704 95.3401 154.913 93.6965 154.641 91.4241L154.4 89.4071C154.129 87.1347 154.519 85.4155 155.444 84.2362C156.365 83.0614 157.878 82.3452 160.027 82.2075C162.202 82.0682 163.875 82.5811 165.067 83.6206C166.263 84.6637 167.054 86.3066 167.325 88.579L167.566 90.596C167.838 92.8684 167.448 94.5869 166.517 95.7663C165.59 96.9415 164.064 97.6595 161.889 97.7988ZM207.388 128.93C212.906 128.576 217.147 127.117 219.886 124.624C222.642 122.116 223.822 118.61 223.309 114.312L223.295 114.2C222.78 109.883 220.786 106.571 217.476 104.446C214.187 102.335 209.664 101.437 204.146 101.791C198.627 102.144 194.386 103.604 191.648 106.101C188.892 108.615 187.714 112.13 188.23 116.446L188.243 116.558C188.756 120.857 190.75 124.159 194.059 126.279C197.347 128.385 201.869 129.284 207.388 128.93ZM206.698 123.156C204.55 123.294 202.89 122.781 201.704 121.741C200.513 120.697 199.722 119.054 199.45 116.781L199.209 114.764C198.938 112.492 199.328 110.773 200.253 109.593C201.174 108.419 202.687 107.702 204.836 107.565C206.984 107.427 208.644 107.94 209.83 108.98C211.02 110.023 211.812 111.667 212.083 113.939L212.324 115.956C212.596 118.229 212.206 119.948 211.281 121.127C210.36 122.302 208.846 123.018 206.698 123.156Z" fill="white" stroke="#090909"/>
<path d="M169.747 127.873L169.984 127.858L170.112 127.667L206.908 72.6159L207.479 71.7621L206.426 71.8296L195.206 72.5485L194.97 72.5636L194.842 72.7549L157.994 127.809L157.422 128.663L158.476 128.595L169.747 127.873ZM161.667 101.104C167.211 100.748 171.452 99.2887 174.185 96.7964C176.935 94.2876 178.101 90.7826 177.588 86.4852L177.575 86.3732C177.059 82.0579 175.079 78.745 171.775 76.6191C168.492 74.5071 163.969 73.6091 158.425 73.9643C152.907 74.3179 148.666 75.7777 145.928 78.2749C143.172 80.7885 141.994 84.3034 142.509 88.62L142.523 88.7321C143.036 93.0308 145.029 96.333 148.339 98.4528C151.626 100.559 156.149 101.457 161.667 101.104ZM160.978 95.3296C158.829 95.4673 157.169 94.9544 155.983 93.9146C154.793 92.8708 154.001 91.2273 153.73 88.9549L153.489 86.9379C153.218 84.6655 153.607 82.9463 154.532 81.7669C155.454 80.5922 156.967 79.8759 159.115 79.7383C161.29 79.5989 162.963 80.1119 164.155 81.1513C165.351 82.1945 166.142 83.8373 166.414 86.1097L166.655 88.1267C166.926 90.3991 166.537 92.1177 165.606 93.2971C164.679 94.4723 163.153 95.1902 160.978 95.3296ZM206.476 126.461C211.995 126.107 216.236 124.647 218.974 122.155C221.731 119.647 222.911 116.141 222.397 111.842L222.384 111.73C221.868 107.414 219.874 104.102 216.564 101.977C213.276 99.8661 208.753 98.9679 203.234 99.3215C197.716 99.6751 193.475 101.135 190.737 103.632C187.981 106.146 186.803 109.661 187.318 113.977L187.332 114.089C187.845 118.388 189.838 121.69 193.148 123.81C196.435 125.916 200.958 126.814 206.476 126.461ZM205.787 120.687C203.638 120.824 201.978 120.312 200.792 119.272C199.602 118.228 198.81 116.584 198.539 114.312L198.298 112.295C198.027 110.023 198.416 108.303 199.341 107.124C200.263 105.949 201.776 105.233 203.924 105.095C206.072 104.958 207.733 105.471 208.919 106.51C210.109 107.554 210.9 109.198 211.172 111.47L211.413 113.487C211.684 115.76 211.295 117.479 210.37 118.658C209.448 119.833 207.935 120.549 205.787 120.687Z" fill="white" stroke="#090909"/>
<path d="M168.836 125.405L169.072 125.389L169.2 125.198L205.997 70.1471L206.568 69.2933L205.514 69.3608L194.295 70.0798L194.058 70.0949L193.93 70.2862L157.082 125.34L156.511 126.194L157.565 126.127L168.836 125.405ZM160.756 98.6348C166.3 98.2796 170.541 96.82 173.274 94.3276C176.024 91.8188 177.19 88.3138 176.677 84.0165L176.664 83.9044C176.148 79.5891 174.168 76.2762 170.864 74.1503C167.581 72.0384 163.058 71.1403 157.514 71.4956C151.996 71.8492 147.755 73.309 145.017 75.8062C142.261 78.3197 141.082 81.8347 141.598 86.1513L141.611 86.2633C142.125 90.562 144.118 93.8643 147.427 95.9841C150.715 98.0901 155.238 98.9885 160.756 98.6348ZM160.067 92.8609C157.918 92.9985 156.258 92.4856 155.072 91.4459C153.882 90.4021 153.09 88.7586 152.819 86.4862L152.578 84.4692C152.306 82.1968 152.696 80.4775 153.621 79.2982C154.543 78.1234 156.056 77.4072 158.204 77.2695C160.379 77.1302 162.052 77.6431 163.244 78.6826C164.44 79.7257 165.231 81.3686 165.503 83.641L165.744 85.658C166.015 87.9304 165.625 89.6489 164.695 90.8283C163.768 92.0035 162.242 92.7215 160.067 92.8609ZM205.565 123.992C211.084 123.638 215.325 122.179 218.063 119.686C220.819 117.178 222 113.672 221.486 109.374L221.473 109.262C220.957 104.945 218.963 101.633 215.653 99.5084C212.365 97.3974 207.842 96.4991 202.323 96.8527C196.805 97.2063 192.564 98.6662 189.826 101.163C187.07 103.677 185.891 107.192 186.407 111.508L186.42 111.621C186.934 115.919 188.927 119.221 192.236 121.341C195.524 123.447 200.047 124.346 205.565 123.992ZM204.876 118.218C202.727 118.356 201.067 117.843 199.881 116.803C198.691 115.759 197.899 114.116 197.628 111.843L197.387 109.826C197.115 107.554 197.505 105.835 198.43 104.655C199.352 103.481 200.865 102.764 203.013 102.627C205.161 102.489 206.821 103.002 208.007 104.042C209.198 105.085 209.989 106.729 210.261 109.001L210.502 111.018C210.773 113.291 210.383 115.01 209.458 116.189C208.537 117.364 207.024 118.08 204.876 118.218Z" fill="white" stroke="#090909"/>
<path d="M167.925 122.935L168.161 122.92L168.289 122.729L205.086 67.6779L205.657 66.8241L204.603 66.8916L193.383 67.6105L193.147 67.6256L193.019 67.8169L156.171 122.871L155.599 123.725L156.654 123.657L167.925 122.935ZM159.845 96.1656C165.388 95.8104 169.63 94.3507 172.362 91.8584C175.113 89.3496 176.279 85.8446 175.766 81.5472L175.752 81.4352C175.237 77.1199 173.257 73.807 169.952 71.6811C166.67 69.5691 162.147 68.6711 156.603 69.0263C151.084 69.3799 146.843 70.8398 144.105 73.337C141.349 75.8505 140.171 79.3654 140.687 83.6821L140.7 83.7941C141.214 88.0928 143.207 91.395 146.516 93.5148C149.804 95.6209 154.326 96.5192 159.845 96.1656ZM159.155 90.3916C157.007 90.5293 155.347 90.0164 154.161 88.9766C152.97 87.9329 152.179 86.2893 151.907 84.0169L151.666 81.9999C151.395 79.7275 151.785 78.0083 152.71 76.829C153.631 75.6542 155.144 74.938 157.293 74.8003C159.468 74.6609 161.141 75.1739 162.333 76.2133C163.529 77.2565 164.32 78.8993 164.591 81.1717L164.832 83.1887C165.104 85.4611 164.714 87.1797 163.784 88.3591C162.856 89.5343 161.33 90.2522 159.155 90.3916ZM204.654 121.523C210.172 121.169 214.413 119.709 217.152 117.217C219.908 114.709 221.088 111.203 220.575 106.904L220.561 106.792C220.046 102.476 218.052 99.164 214.742 97.0392C211.453 94.9281 206.931 94.0299 201.412 94.3835C195.893 94.7371 191.652 96.1969 188.914 98.6941C186.158 101.208 184.98 104.723 185.496 109.039L185.509 109.151C186.023 113.45 188.016 116.752 191.325 118.872C194.613 120.978 199.135 121.876 204.654 121.523ZM203.964 115.749C201.816 115.886 200.156 115.374 198.97 114.334C197.779 113.29 196.988 111.646 196.716 109.374L196.475 107.357C196.204 105.085 196.594 103.365 197.519 102.186C198.44 101.011 199.953 100.295 202.102 100.157C204.25 100.02 205.91 100.533 207.096 101.572C208.287 102.616 209.078 104.26 209.349 106.532L209.59 108.549C209.862 110.822 209.472 112.541 208.547 113.72C207.626 114.895 206.112 115.611 203.964 115.749Z" fill="white" stroke="#090909"/>
<path d="M167.014 120.466L167.25 120.451L167.378 120.259L204.175 65.2087L204.746 64.3548L203.692 64.4223L192.472 65.1413L192.236 65.1564L192.108 65.3477L155.26 120.402L154.688 121.256L155.743 121.188L167.014 120.466ZM158.934 93.6964C164.477 93.3412 168.719 91.8815 171.451 89.3892C174.202 86.8804 175.368 83.3753 174.855 79.078L174.841 78.9659C174.326 74.6506 172.345 71.3377 169.041 69.2119C165.759 67.0999 161.235 66.2019 155.692 66.5571C150.173 66.9107 145.932 68.3705 143.194 70.8677C140.438 73.3812 139.26 76.8962 139.776 81.2128L139.789 81.3249C140.302 85.6236 142.296 88.9258 145.605 91.0456C148.893 93.1517 153.415 94.05 158.934 93.6964ZM158.244 87.9224C156.096 88.06 154.436 87.5471 153.25 86.5074C152.059 85.4636 151.268 83.8201 150.996 81.5477L150.755 79.5307C150.484 77.2583 150.874 75.5391 151.799 74.3597C152.72 73.1849 154.233 72.4687 156.382 72.3311C158.557 72.1917 160.23 72.7046 161.422 73.7441C162.618 74.7872 163.409 76.4301 163.68 78.7025L163.921 80.7195C164.193 82.9919 163.803 84.7104 162.872 85.8898C161.945 87.0651 160.419 87.783 158.244 87.9224ZM203.743 119.054C209.261 118.7 213.502 117.24 216.241 114.748C218.997 112.239 220.177 108.734 219.664 104.435L219.65 104.323C219.135 100.006 217.141 96.6948 213.831 94.5699C210.542 92.4589 206.019 91.5606 200.501 91.9142C194.982 92.2679 190.741 93.7277 188.003 96.2249C185.247 98.7384 184.069 102.253 184.585 106.57L184.598 106.682C185.111 110.981 187.105 114.283 190.414 116.403C193.702 118.509 198.224 119.407 203.743 119.054ZM203.053 113.28C200.905 113.417 199.245 112.904 198.059 111.865C196.868 110.821 196.077 109.177 195.805 106.905L195.564 104.888C195.293 102.615 195.683 100.896 196.608 99.7169C197.529 98.5421 199.042 97.8259 201.191 97.6882C203.339 97.5506 204.999 98.0635 206.185 99.1032C207.375 100.147 208.167 101.791 208.438 104.063L208.679 106.08C208.951 108.352 208.561 110.072 207.636 111.251C206.715 112.426 205.201 113.142 203.053 113.28Z" fill="white" stroke="#090909"/>
<path d="M166.102 117.997L166.338 117.982L166.466 117.79L203.263 62.7394L203.834 61.8856L202.781 61.9531L191.561 62.672L191.325 62.6872L191.196 62.8784L154.349 117.932L153.777 118.787L154.831 118.719L166.102 117.997ZM158.022 91.2271C163.566 90.8719 167.807 89.4123 170.54 86.9199C173.29 84.4111 174.456 80.9061 173.943 76.6087L173.93 76.4967C173.414 72.1814 171.434 68.8685 168.13 66.7426C164.847 64.6307 160.324 63.7326 154.78 64.0878C149.262 64.4415 145.021 65.9013 142.283 68.3985C139.527 70.912 138.348 74.4269 138.864 78.7436L138.878 78.8556C139.391 83.1543 141.384 86.4565 144.694 88.5764C147.981 90.6824 152.504 91.5807 158.022 91.2271ZM157.333 85.4531C155.184 85.5908 153.524 85.0779 152.338 84.0382C151.148 82.9944 150.356 81.3508 150.085 79.0784L149.844 77.0614C149.573 74.789 149.962 73.0698 150.887 71.8905C151.809 70.7157 153.322 69.9995 155.47 69.8618C157.645 69.7224 159.318 70.2354 160.51 71.2749C161.706 72.318 162.497 73.9608 162.769 76.2333L163.01 78.2503C163.281 80.5227 162.892 82.2412 161.961 83.4206C161.034 84.5958 159.508 85.3138 157.333 85.4531ZM202.831 116.584C208.35 116.231 212.591 114.771 215.329 112.279C218.086 109.77 219.266 106.265 218.752 101.966L218.739 101.854C218.223 97.5372 216.229 94.2255 212.919 92.1007C209.631 89.9897 205.108 89.0914 199.589 89.445C194.071 89.7986 189.83 91.2584 187.092 93.7556C184.336 96.2691 183.157 99.7841 183.673 104.101L183.687 104.213C184.2 108.511 186.193 111.814 189.503 113.934C192.79 116.04 197.313 116.938 202.831 116.584ZM202.142 110.81C199.993 110.948 198.333 110.435 197.147 109.395C195.957 108.352 195.165 106.708 194.894 104.436L194.653 102.419C194.382 100.146 194.771 98.427 195.696 97.2476C196.618 96.0729 198.131 95.3566 200.279 95.219C202.427 95.0813 204.088 95.5942 205.273 96.634C206.464 97.6778 207.255 99.3213 207.527 101.594L207.768 103.611C208.039 105.883 207.65 107.602 206.725 108.782C205.803 109.956 204.29 110.673 202.142 110.81Z" fill="white" stroke="#090909"/>
<path d="M165.191 115.528L165.427 115.512L165.555 115.321L202.352 60.2702L202.923 59.4164L201.869 59.4839L190.65 60.2028L190.413 60.2179L190.285 60.4092L153.437 115.463L152.866 116.317L153.92 116.25L165.191 115.528ZM157.111 88.7579C162.655 88.4027 166.896 86.943 169.629 84.4507C172.379 81.9419 173.545 78.4369 173.032 74.1395L173.019 74.0275C172.503 69.7122 170.523 66.3992 167.219 64.2734C163.936 62.1614 159.413 61.2634 153.869 61.6186C148.351 61.9722 144.11 63.432 141.372 65.9292C138.616 68.4427 137.437 71.9577 137.953 76.2743L137.966 76.3864C138.48 80.6851 140.473 83.9873 143.782 86.1071C147.07 88.2132 151.593 89.1115 157.111 88.7579ZM156.422 82.9839C154.273 83.1216 152.613 82.6087 151.427 81.5689C150.237 80.5251 149.445 78.8816 149.174 76.6092L148.933 74.5922C148.661 72.3198 149.051 70.6006 149.976 69.4212C150.898 68.2465 152.411 67.5302 154.559 67.3926C156.734 67.2532 158.407 67.7662 159.599 68.8056C160.795 69.8488 161.586 71.4916 161.858 73.764L162.099 75.781C162.37 78.0534 161.98 79.772 161.05 80.9514C160.123 82.1266 158.597 82.8445 156.422 82.9839ZM201.92 114.115C207.439 113.761 211.68 112.302 214.418 109.809C217.174 107.301 218.355 103.795 217.841 99.4967L217.828 99.3846C217.312 95.068 215.318 91.7563 212.008 89.6315C208.72 87.5204 204.197 86.6222 198.678 86.9758C193.16 87.3294 188.919 88.7892 186.181 91.2864C183.425 93.7999 182.246 97.3149 182.762 101.631L182.775 101.744C183.289 106.042 185.282 109.344 188.591 111.464C191.879 113.57 196.402 114.469 201.92 114.115ZM201.231 108.341C199.082 108.479 197.422 107.966 196.236 106.926C195.046 105.882 194.254 104.239 193.983 101.966L193.742 99.9494C193.47 97.677 193.86 95.9578 194.785 94.7784C195.707 93.6036 197.22 92.8874 199.368 92.7498C201.516 92.6121 203.176 93.125 204.362 94.1647C205.553 95.2085 206.344 96.852 206.616 99.1244L206.857 101.141C207.128 103.414 206.738 105.133 205.813 106.312C204.892 107.487 203.379 108.203 201.231 108.341Z" fill="white" stroke="#090909"/>
<g filter="url(#filter3_b_1418_13689)">
<rect width="79.4498" height="79.4498" transform="matrix(0.866025 0.5 -2.20305e-08 1 110.019 55.7251)" fill="url(#paint6_linear_1418_13689)" fill-opacity="0.12"/>
<rect width="79.4498" height="79.4498" transform="matrix(0.866025 0.5 -2.20305e-08 1 110.019 55.7251)" stroke="url(#paint7_linear_1418_13689)" stroke-width="2" stroke-linejoin="bevel"/>
</g>
<g filter="url(#filter4_b_1418_13689)">
<rect width="79.4498" height="79.4498" transform="matrix(-0.866025 0.5 2.20305e-08 1 247.549 55.7251)" fill="url(#paint8_linear_1418_13689)" fill-opacity="0.3"/>
<rect width="79.4498" height="79.4498" transform="matrix(-0.866025 0.5 2.20305e-08 1 247.549 55.7251)" fill="url(#paint9_radial_1418_13689)" fill-opacity="0.59"/>
<rect width="79.4498" height="79.4498" transform="matrix(-0.866025 0.5 2.20305e-08 1 247.549 55.7251)" stroke="url(#paint10_linear_1418_13689)" stroke-width="2" stroke-linejoin="bevel"/>
</g>
<g filter="url(#filter5_b_1418_13689)">
<rect width="79.4498" height="79.4498" transform="matrix(0.866025 0.5 -0.866025 0.5 178.825 16)" fill="url(#paint11_linear_1418_13689)" fill-opacity="0.12"/>
<rect width="79.4498" height="79.4498" transform="matrix(0.866025 0.5 -0.866025 0.5 178.825 16)" stroke="url(#paint12_linear_1418_13689)" stroke-width="2" stroke-linejoin="bevel"/>
</g>
<path d="M249.168 91.6457C263.12 99.3922 272.438 107.953 275.945 116.246C279.452 124.539 276.99 132.191 268.871 138.235C260.751 144.279 247.339 148.444 230.33 150.202C213.322 151.96 193.48 151.233 173.315 148.112C153.15 144.992 133.566 139.618 117.041 132.671C100.516 125.724 87.7921 117.515 80.4775 109.082C73.1629 100.65 71.5865 92.3726 75.9476 85.2972C80.3088 78.2219 90.4116 72.6663 104.979 69.3329L106.4 70.1223C92.127 73.3885 82.2278 78.8322 77.9545 85.7649C73.6813 92.6976 75.2259 100.808 82.3931 109.07C89.5603 117.333 102.028 125.376 118.22 132.184C134.412 138.991 153.6 144.256 173.359 147.314C193.118 150.371 212.56 151.084 229.226 149.361C245.892 147.639 259.033 143.558 266.989 137.636C274.945 131.714 277.357 124.216 273.92 116.09C270.484 107.964 261.354 99.5758 247.684 91.9855L249.168 91.6457Z" fill="url(#paint13_linear_1418_13689)"/>
<g filter="url(#filter6_dddddd_1418_13689)">
<circle cx="72.8442" cy="72.3374" r="6.50044" fill="white"/>
</g>
<g filter="url(#filter7_dddddd_1418_13689)">
<circle cx="267.857" cy="122.174" r="3.61136" fill="white"/>
</g>
<defs>
<filter id="filter0_f_1418_13689" x="94.0309" y="83.2157" width="165.339" height="156.732" filterUnits="userSpaceOnUse" color-interpolation-filters="sRGB">
<feFlood flood-opacity="0" result="BackgroundImageFix"/>
<feBlend mode="normal" in="SourceGraphic" in2="BackgroundImageFix" result="shape"/>
<feGaussianBlur stdDeviation="27.8074" result="effect1_foregroundBlur_1418_13689"/>
</filter>
<filter id="filter1_i_1418_13689" x="110.019" y="95.4497" width="137.611" height="79.4497" filterUnits="userSpaceOnUse" color-interpolation-filters="sRGB">
<feFlood flood-opacity="0" result="BackgroundImageFix"/>
<feBlend mode="normal" in="SourceGraphic" in2="BackgroundImageFix" result="shape"/>
<feColorMatrix in="SourceAlpha" type="matrix" values="0 0 0 0 0 0 0 0 0 0 0 0 0 0 0 0 0 0 127 0" result="hardAlpha"/>
<feOffset/>
<feGaussianBlur stdDeviation="3.44028"/>
<feComposite in2="hardAlpha" operator="arithmetic" k2="-1" k3="1"/>
<feColorMatrix type="matrix" values="0 0 0 0 1 0 0 0 0 1 0 0 0 0 1 0 0 0 1 0"/>
<feBlend mode="normal" in2="shape" result="effect1_innerShadow_1418_13689"/>
</filter>
<filter id="filter2_bii_1418_13689" x="173.759" y="11.0409" width="78.5562" height="129.093" filterUnits="userSpaceOnUse" color-interpolation-filters="sRGB">
<feFlood flood-opacity="0" result="BackgroundImageFix"/>
<feGaussianBlur in="BackgroundImageFix" stdDeviation="2.16681"/>
<feComposite in2="SourceAlpha" operator="in" result="effect1_backgroundBlur_1418_13689"/>
<feBlend mode="normal" in="SourceGraphic" in2="effect1_backgroundBlur_1418_13689" result="shape"/>
<feColorMatrix in="SourceAlpha" type="matrix" values="0 0 0 0 0 0 0 0 0 0 0 0 0 0 0 0 0 0 127 0" result="hardAlpha"/>
<feOffset/>
<feGaussianBlur stdDeviation="4.33363"/>
<feComposite in2="hardAlpha" operator="arithmetic" k2="-1" k3="1"/>
<feColorMatrix type="matrix" values="0 0 0 0 1 0 0 0 0 1 0 0 0 0 1 0 0 0 1 0"/>
<feBlend mode="normal" in2="shape" result="effect2_innerShadow_1418_13689"/>
<feColorMatrix in="SourceAlpha" type="matrix" values="0 0 0 0 0 0 0 0 0 0 0 0 0 0 0 0 0 0 127 0" result="hardAlpha"/>
<feOffset/>
<feGaussianBlur stdDeviation="4.33363"/>
<feComposite in2="hardAlpha" operator="arithmetic" k2="-1" k3="1"/>
<feColorMatrix type="matrix" values="0 0 0 0 1 0 0 0 0 1 0 0 0 0 1 0 0 0 1 0"/>
<feBlend mode="normal" in2="effect2_innerShadow_1418_13689" result="effect3_innerShadow_1418_13689"/>
</filter>
<filter id="filter3_b_1418_13689" x="101.93" y="47.5024" width="84.983" height="135.62" filterUnits="userSpaceOnUse" color-interpolation-filters="sRGB">
<feFlood flood-opacity="0" result="BackgroundImageFix"/>
<feGaussianBlur in="BackgroundImageFix" stdDeviation="3.61136"/>
<feComposite in2="SourceAlpha" operator="in" result="effect1_backgroundBlur_1418_13689"/>
<feBlend mode="normal" in="SourceGraphic" in2="effect1_backgroundBlur_1418_13689" result="shape"/>
</filter>
<filter id="filter4_b_1418_13689" x="170.654" y="47.5024" width="84.983" height="135.62" filterUnits="userSpaceOnUse" color-interpolation-filters="sRGB">
<feFlood flood-opacity="0" result="BackgroundImageFix"/>
<feGaussianBlur in="BackgroundImageFix" stdDeviation="3.61136"/>
<feComposite in2="SourceAlpha" operator="in" result="effect1_backgroundBlur_1418_13689"/>
<feBlend mode="normal" in="SourceGraphic" in2="effect1_backgroundBlur_1418_13689" result="shape"/>
</filter>
<filter id="filter5_b_1418_13689" x="101.931" y="8.27729" width="153.789" height="94.8951" filterUnits="userSpaceOnUse" color-interpolation-filters="sRGB">
<feFlood flood-opacity="0" result="BackgroundImageFix"/>
<feGaussianBlur in="BackgroundImageFix" stdDeviation="3.61136"/>
<feComposite in2="SourceAlpha" operator="in" result="effect1_backgroundBlur_1418_13689"/>
<feBlend mode="normal" in="SourceGraphic" in2="effect1_backgroundBlur_1418_13689" result="shape"/>
</filter>
<filter id="filter6_dddddd_1418_13689" x="0.819298" y="0.312462" width="144.05" height="144.05" filterUnits="userSpaceOnUse" color-interpolation-filters="sRGB">
<feFlood flood-opacity="0" result="BackgroundImageFix"/>
<feColorMatrix in="SourceAlpha" type="matrix" values="0 0 0 0 0 0 0 0 0 0 0 0 0 0 0 0 0 0 127 0" result="hardAlpha"/>
<feOffset/>
<feGaussianBlur stdDeviation="0.780053"/>
<feColorMatrix type="matrix" values="0 0 0 0 1 0 0 0 0 1 0 0 0 0 1 0 0 0 1 0"/>
<feBlend mode="normal" in2="BackgroundImageFix" result="effect1_dropShadow_1418_13689"/>
<feColorMatrix in="SourceAlpha" type="matrix" values="0 0 0 0 0 0 0 0 0 0 0 0 0 0 0 0 0 0 127 0" result="hardAlpha"/>
<feOffset/>
<feGaussianBlur stdDeviation="1.56011"/>
<feColorMatrix type="matrix" values="0 0 0 0 1 0 0 0 0 1 0 0 0 0 1 0 0 0 1 0"/>
<feBlend mode="normal" in2="effect1_dropShadow_1418_13689" result="effect2_dropShadow_1418_13689"/>
<feColorMatrix in="SourceAlpha" type="matrix" values="0 0 0 0 0 0 0 0 0 0 0 0 0 0 0 0 0 0 127 0" result="hardAlpha"/>
<feOffset/>
<feGaussianBlur stdDeviation="5.46037"/>
<feColorMatrix type="matrix" values="0 0 0 0 1 0 0 0 0 1 0 0 0 0 1 0 0 0 1 0"/>
<feBlend mode="normal" in2="effect2_dropShadow_1418_13689" result="effect3_dropShadow_1418_13689"/>
<feColorMatrix in="SourceAlpha" type="matrix" values="0 0 0 0 0 0 0 0 0 0 0 0 0 0 0 0 0 0 127 0" result="hardAlpha"/>
<feOffset/>
<feGaussianBlur stdDeviation="10.9207"/>
<feColorMatrix type="matrix" values="0 0 0 0 1 0 0 0 0 1 0 0 0 0 1 0 0 0 1 0"/>
<feBlend mode="normal" in2="effect3_dropShadow_1418_13689" result="effect4_dropShadow_1418_13689"/>
<feColorMatrix in="SourceAlpha" type="matrix" values="0 0 0 0 0 0 0 0 0 0 0 0 0 0 0 0 0 0 127 0" result="hardAlpha"/>
<feOffset/>
<feGaussianBlur stdDeviation="18.7213"/>
<feColorMatrix type="matrix" values="0 0 0 0 1 0 0 0 0 1 0 0 0 0 1 0 0 0 1 0"/>
<feBlend mode="normal" in2="effect4_dropShadow_1418_13689" result="effect5_dropShadow_1418_13689"/>
<feColorMatrix in="SourceAlpha" type="matrix" values="0 0 0 0 0 0 0 0 0 0 0 0 0 0 0 0 0 0 127 0" result="hardAlpha"/>
<feOffset/>
<feGaussianBlur stdDeviation="32.7622"/>
<feColorMatrix type="matrix" values="0 0 0 0 1 0 0 0 0 1 0 0 0 0 1 0 0 0 1 0"/>
<feBlend mode="normal" in2="effect5_dropShadow_1418_13689" result="effect6_dropShadow_1418_13689"/>
<feBlend mode="normal" in="SourceGraphic" in2="effect6_dropShadow_1418_13689" result="shape"/>
</filter>
<filter id="filter7_dddddd_1418_13689" x="227.844" y="82.16" width="80.0276" height="80.0276" filterUnits="userSpaceOnUse" color-interpolation-filters="sRGB">
<feFlood flood-opacity="0" result="BackgroundImageFix"/>
<feColorMatrix in="SourceAlpha" type="matrix" values="0 0 0 0 0 0 0 0 0 0 0 0 0 0 0 0 0 0 127 0" result="hardAlpha"/>
<feOffset/>
<feGaussianBlur stdDeviation="0.433363"/>
<feColorMatrix type="matrix" values="0 0 0 0 1 0 0 0 0 1 0 0 0 0 1 0 0 0 1 0"/>
<feBlend mode="normal" in2="BackgroundImageFix" result="effect1_dropShadow_1418_13689"/>
<feColorMatrix in="SourceAlpha" type="matrix" values="0 0 0 0 0 0 0 0 0 0 0 0 0 0 0 0 0 0 127 0" result="hardAlpha"/>
<feOffset/>
<feGaussianBlur stdDeviation="0.866726"/>
<feColorMatrix type="matrix" values="0 0 0 0 1 0 0 0 0 1 0 0 0 0 1 0 0 0 1 0"/>
<feBlend mode="normal" in2="effect1_dropShadow_1418_13689" result="effect2_dropShadow_1418_13689"/>
<feColorMatrix in="SourceAlpha" type="matrix" values="0 0 0 0 0 0 0 0 0 0 0 0 0 0 0 0 0 0 127 0" result="hardAlpha"/>
<feOffset/>
<feGaussianBlur stdDeviation="3.03354"/>
<feColorMatrix type="matrix" values="0 0 0 0 1 0 0 0 0 1 0 0 0 0 1 0 0 0 1 0"/>
<feBlend mode="normal" in2="effect2_dropShadow_1418_13689" result="effect3_dropShadow_1418_13689"/>
<feColorMatrix in="SourceAlpha" type="matrix" values="0 0 0 0 0 0 0 0 0 0 0 0 0 0 0 0 0 0 127 0" result="hardAlpha"/>
<feOffset/>
<feGaussianBlur stdDeviation="6.06708"/>
<feColorMatrix type="matrix" values="0 0 0 0 1 0 0 0 0 1 0 0 0 0 1 0 0 0 1 0"/>
<feBlend mode="normal" in2="effect3_dropShadow_1418_13689" result="effect4_dropShadow_1418_13689"/>
<feColorMatrix in="SourceAlpha" type="matrix" values="0 0 0 0 0 0 0 0 0 0 0 0 0 0 0 0 0 0 127 0" result="hardAlpha"/>
<feOffset/>
<feGaussianBlur stdDeviation="10.4007"/>
<feColorMatrix type="matrix" values="0 0 0 0 1 0 0 0 0 1 0 0 0 0 1 0 0 0 1 0"/>
<feBlend mode="normal" in2="effect4_dropShadow_1418_13689" result="effect5_dropShadow_1418_13689"/>
<feColorMatrix in="SourceAlpha" type="matrix" values="0 0 0 0 0 0 0 0 0 0 0 0 0 0 0 0 0 0 127 0" result="hardAlpha"/>
<feOffset/>
<feGaussianBlur stdDeviation="18.2012"/>
<feColorMatrix type="matrix" values="0 0 0 0 1 0 0 0 0 1 0 0 0 0 1 0 0 0 1 0"/>
<feBlend mode="normal" in2="effect5_dropShadow_1418_13689" result="effect6_dropShadow_1418_13689"/>
<feBlend mode="normal" in="SourceGraphic" in2="effect6_dropShadow_1418_13689" result="shape"/>
</filter>
<linearGradient id="paint0_linear_1418_13689" x1="70.7883" y1="188" x2="283.788" y2="188" gradientUnits="userSpaceOnUse">
<stop stop-color="white"/>
<stop offset="0.421875" stop-color="#CCC9C9"/>
<stop offset="0.48379" stop-color="#E4E4E4"/>
<stop offset="0.572917" stop-color="#D3D3D3"/>
<stop offset="1" stop-color="white"/>
</linearGradient>
<linearGradient id="paint1_linear_1418_13689" x1="70.7883" y1="188" x2="283.788" y2="188" gradientUnits="userSpaceOnUse">
<stop stop-color="white"/>
<stop offset="0.421875" stop-color="#CCC9C9"/>
<stop offset="0.48379" stop-color="#E4E4E4"/>
<stop offset="0.572917" stop-color="#D3D3D3"/>
<stop offset="1" stop-color="white"/>
</linearGradient>
<linearGradient id="paint2_linear_1418_13689" x1="70.7883" y1="172.197" x2="283.788" y2="172.197" gradientUnits="userSpaceOnUse">
<stop stop-color="white"/>
<stop offset="0.421875" stop-color="#CCC9C9"/>
<stop offset="0.48379" stop-color="#E4E4E4"/>
<stop offset="0.572917" stop-color="#D3D3D3"/>
<stop offset="1" stop-color="white"/>
</linearGradient>
<linearGradient id="paint3_linear_1418_13689" x1="70.7883" y1="172.197" x2="283.788" y2="172.197" gradientUnits="userSpaceOnUse">
<stop stop-color="white"/>
<stop offset="0.421875" stop-color="#CCC9C9"/>
<stop offset="0.48379" stop-color="#E4E4E4"/>
<stop offset="0.572917" stop-color="#D3D3D3"/>
<stop offset="1" stop-color="white"/>
</linearGradient>
<linearGradient id="paint4_linear_1418_13689" x1="39.7249" y1="0" x2="39.7249" y2="79.4498" gradientUnits="userSpaceOnUse">
<stop stop-color="white"/>
<stop offset="1" stop-color="#E8BF4B"/>
</linearGradient>
<linearGradient id="paint5_linear_1418_13689" x1="79.2307" y1="0.109579" x2="63.8043" y2="-1.41256" gradientUnits="userSpaceOnUse">
<stop stop-color="white"/>
<stop offset="1" stop-color="white" stop-opacity="0"/>
</linearGradient>
<linearGradient id="paint6_linear_1418_13689" x1="11.2591" y1="7.0102" x2="49.1005" y2="89.6785" gradientUnits="userSpaceOnUse">
<stop stop-color="white"/>
<stop offset="0.386633" stop-color="white"/>
<stop offset="1" stop-color="white"/>
</linearGradient>
<linearGradient id="paint7_linear_1418_13689" x1="79.2307" y1="0.109574" x2="56.9555" y2="57.9368" gradientUnits="userSpaceOnUse">
<stop stop-color="white"/>
<stop offset="1" stop-color="white" stop-opacity="0"/>
</linearGradient>
<linearGradient id="paint8_linear_1418_13689" x1="24.9477" y1="29.4179" x2="51.8565" y2="85.9387" gradientUnits="userSpaceOnUse">
<stop offset="0.557292" stop-color="white"/>
<stop offset="1" stop-color="#FBFBFB"/>
</linearGradient>
<radialGradient id="paint9_radial_1418_13689" cx="0" cy="0" r="1" gradientUnits="userSpaceOnUse" gradientTransform="translate(49.5509 77.7871) rotate(-57.3832) scale(75.5737 41.2623)">
<stop stop-color="#EECBFF"/>
<stop offset="1" stop-color="white" stop-opacity="0"/>
</radialGradient>
<linearGradient id="paint10_linear_1418_13689" x1="79.2307" y1="0.109574" x2="45.6847" y2="27.4521" gradientUnits="userSpaceOnUse">
<stop stop-color="white"/>
<stop offset="1" stop-color="white" stop-opacity="0"/>
</linearGradient>
<linearGradient id="paint11_linear_1418_13689" x1="57.7609" y1="80.9152" x2="75.1978" y2="-1.14344" gradientUnits="userSpaceOnUse">
<stop stop-color="white"/>
<stop offset="1" stop-color="white"/>
</linearGradient>
<linearGradient id="paint12_linear_1418_13689" x1="79.3403" y1="79.5594" x2="51.7483" y2="56.276" gradientUnits="userSpaceOnUse">
<stop stop-color="white"/>
<stop offset="1" stop-color="white" stop-opacity="0"/>
</linearGradient>
<linearGradient id="paint13_linear_1418_13689" x1="162.857" y1="47.0002" x2="175.357" y2="169.5" gradientUnits="userSpaceOnUse">
<stop offset="0.4461" stop-color="white"/>
<stop offset="1"/>
</linearGradient>
</defs>
</svg>
