<svg width="180" height="34" viewBox="0 0 180 34" fill="none" xmlns="http://www.w3.org/2000/svg">
<path d="M55.6432 28.2215C60.428 28.2215 62.8944 26.0182 62.8944 21.7924V21.7266C62.8944 18.5696 61.3159 16.6623 58.274 16.1525V15.8237C60.8226 15.3139 62.1381 13.6039 62.1381 10.8744V10.8086C62.1381 7.12544 59.8525 5.20163 55.4294 5.20163H44.906V7.79959C46.6818 7.79959 46.7805 7.8818 46.7805 9.31233V24.1108C46.7805 25.5414 46.6818 25.6236 44.906 25.6236V28.2215H55.6432ZM50.8583 8.40797H54.673C56.975 8.40797 58.0767 9.3781 58.0767 11.4663V11.5485C58.0767 13.7026 56.975 14.722 54.673 14.722H50.8583V8.40797ZM50.8583 17.468H54.8375C57.3696 17.468 58.5864 18.6847 58.5864 21.184V21.2662C58.5864 23.7984 57.3696 24.9988 54.8375 24.9988H50.8583V17.468Z" fill="#F1F1F1"/>
<path d="M72.1846 28.2215V25.6236C70.4252 25.6236 70.3101 25.5414 70.3101 24.1108V5.20163H66.7256C66.5612 6.63215 66.2981 6.84591 64.44 6.84591V9.44387C66.1994 9.44387 66.3145 9.52608 66.3145 10.9566V24.1108C66.3145 25.5414 66.1994 25.6236 64.44 25.6236V28.2215H72.1846Z" fill="#F1F1F1"/>
<path d="M81.3103 28.6326C86.0623 28.6326 88.7261 25.2783 88.7261 19.7699V19.4082C88.7261 13.867 86.0788 10.5455 81.3103 10.5455C76.5419 10.5455 73.8947 13.867 73.8947 19.4082V19.7699C73.8947 25.2783 76.5419 28.6326 81.3103 28.6326ZM81.3103 25.8702C79.3372 25.8702 78.0218 24.1273 78.0218 20.3619V18.8163C78.0218 15.1002 79.0906 13.2915 81.3103 13.2915C83.5137 13.2915 84.5989 15.1002 84.5989 18.8163V20.3619C84.5989 24.078 83.5137 25.8702 81.3103 25.8702Z" fill="#F1F1F1"/>
<path d="M98.5095 28.6326C102.735 28.6326 105.202 26.38 105.679 22.1377L101.765 21.7102C101.486 24.5055 100.4 25.8538 98.526 25.8538C96.2897 25.8538 95.221 24.0286 95.221 20.181V18.7998C95.221 15.0673 96.4048 13.2915 98.789 13.2915C100.4 13.2915 101.403 14.1136 101.403 15.1824C101.403 16.2183 100.433 16.4156 100.433 17.5337C100.433 18.6354 101.288 19.1616 102.571 19.1616C104.412 19.1616 105.366 18.0599 105.366 16.0374C105.366 12.6831 102.785 10.5455 98.674 10.5455C93.8069 10.5455 91.0938 13.6039 91.0938 19.4575V19.5233C91.0938 25.5085 93.6096 28.6326 98.5095 28.6326Z" fill="#F1F1F1"/>
<path d="M114.821 28.2215V25.6236C113.275 25.6236 113.193 25.5414 113.193 24.1602V21.9568L115.413 19.9508L118.126 24.3904C118.718 25.492 118.553 25.6236 116.843 25.6236V28.2215H123.585V25.6236C122.384 25.6236 122.302 25.5907 121.497 24.1273L118.06 17.5337L120.79 14.8864C122.056 13.719 122.401 13.5546 123.486 13.5546V10.9566H115.873V13.4724C118.34 13.5546 118.372 13.9656 116.498 15.7908L112.946 19.2438L112.667 19.0958C113.045 17.4844 113.193 16.2841 113.193 14.2452V5.20163H109.608C109.444 6.63215 109.181 6.84591 107.323 6.84591V9.44387C109.082 9.44387 109.197 9.52608 109.197 10.9566V24.1108C109.197 25.5414 109.082 25.6236 107.323 25.6236V28.2215H114.821Z" fill="#F1F1F1"/>
<path d="M133.615 28.238V25.64C130.507 25.64 130.293 25.5578 130.293 24.1273V19.0958C130.293 16.4321 131.494 14.5247 132.661 14.5247C133.763 14.5247 133.352 16.6951 134.93 16.6951C136.081 16.6951 136.723 15.5606 136.723 13.7848C136.723 11.8938 135.966 10.8251 134.486 10.8251C132.595 10.8251 130.935 12.4036 129.57 15.725L129.225 15.5935C129.817 13.6203 130.096 12.1569 130.145 10.9566H126.709C126.544 12.3871 126.281 12.6009 124.423 12.6009V15.1988C126.183 15.1988 126.298 15.2811 126.298 16.7116V24.1273C126.298 25.5578 126.183 25.64 124.423 25.64V28.238H133.615Z" fill="#F1F1F1"/>
<path d="M141.606 8.90126C143.3 8.90126 144.27 8.14489 144.27 6.84591C144.27 5.56337 143.3 4.79056 141.606 4.79056C139.912 4.79056 138.942 5.56337 138.942 6.84591C138.942 8.14489 139.912 8.90126 141.606 8.90126ZM145.487 28.2215V25.6236C143.727 25.6236 143.612 25.5414 143.612 24.1108V10.9566H140.028C139.863 12.3871 139.6 12.6009 137.742 12.6009V15.1988C139.501 15.1988 139.617 15.2811 139.617 16.7116V24.1108C139.617 25.5414 139.501 25.6236 137.742 25.6236V28.2215H145.487Z" fill="#F1F1F1"/>
<path d="M153.067 28.5175C155.73 28.5175 157.44 26.8732 158.378 23.9629L158.723 24.0944C158.18 25.9853 157.901 27.3665 157.884 28.2215H163.738V25.6236C161.979 25.6236 161.864 25.5414 161.864 24.1108V5.20163H158.279C158.131 6.63215 157.868 6.84591 155.994 6.84591V9.06569C157.786 9.06569 157.884 9.13146 157.917 9.85494L157.967 10.8908C158.016 12.0912 158.213 13.4066 158.723 15.0837L158.378 15.2153C157.457 12.42 155.747 10.6606 153.001 10.6606C149.351 10.6606 147.197 13.8505 147.197 19.2273V19.9508C147.197 25.3276 149.367 28.5175 153.067 28.5175ZM154.415 25.8209C152.277 25.8209 151.242 24.0122 151.242 20.2303V18.9643C151.242 15.166 152.277 13.3408 154.399 13.3408C156.651 13.3408 157.868 15.3633 157.868 19.1287V20.0659C157.868 23.8149 156.651 25.8209 154.415 25.8209Z" fill="#F1F1F1"/>
<path d="M172.946 25.8702C170.611 25.8702 169.411 24.1108 169.411 20.4441V20.2303H179.868C179.967 19.6877 180 19.1451 180 18.5203C180 13.423 177.517 10.562 172.946 10.562C168.079 10.562 165.448 13.7519 165.448 19.5726V19.6384C165.448 25.4263 168.046 28.6162 172.847 28.6162C176.827 28.6162 179.359 26.5115 179.934 22.8283L176.268 22.3843C175.939 24.785 174.821 25.8702 172.946 25.8702ZM173.028 13.2915C175.001 13.2915 176.021 14.5411 176.021 16.9253V16.9418C176.021 17.5666 175.725 17.8626 175.018 17.8626H169.444C169.641 14.8207 170.825 13.2915 173.028 13.2915Z" fill="#F1F1F1"/>
<path d="M26.0576 8.81967C26.0576 8.37686 26.4166 8.0179 26.8594 8.0179H32.8727C33.3155 8.0179 33.6744 8.37686 33.6744 8.81967V14.833C33.6744 15.2758 33.3155 15.6347 32.8727 15.6347H26.8594C26.4166 15.6347 26.0576 15.2758 26.0576 14.833V8.81967Z" fill="#F1F1F1"/>
<path d="M18.0402 0.801771C18.0402 0.358965 18.3991 0 18.842 0H24.8553C25.2981 0 25.657 0.358966 25.657 0.801772V6.81507C25.657 7.25787 25.2981 7.61684 24.8553 7.61684H18.842C18.3991 7.61684 18.0402 7.25787 18.0402 6.81507V0.801771Z" fill="#F1F1F1"/>
<path d="M27.2607 8.01818C26.6594 8.01818 25.657 7.61684 25.657 6.81507L24.8553 7.61684C25.657 7.61684 26.0581 8.61951 26.0581 9.22084L27.2607 8.01818Z" fill="#F1F1F1"/>
<path d="M7.61684 8.81967C7.61684 8.37686 7.25787 8.0179 6.81507 8.0179H0.801771C0.358965 8.0179 0 8.37686 0 8.81967V14.833C0 15.2758 0.358966 15.6347 0.801772 15.6347H6.81507C7.25787 15.6347 7.61684 15.2758 7.61684 14.833V8.81967Z" fill="#F1F1F1"/>
<path d="M15.6354 0.801771C15.6354 0.358965 15.2764 0 14.8336 0H8.82031C8.3775 0 8.01854 0.358966 8.01854 0.801772V6.81507C8.01854 7.25787 8.3775 7.61684 8.82031 7.61684H14.8336C15.2764 7.61684 15.6354 7.25787 15.6354 6.81507V0.801771Z" fill="#F1F1F1"/>
<path d="M6.41416 8.01818C7.01549 8.01818 8.01854 7.61684 8.01854 6.81507L8.82031 7.61684C8.01854 7.61684 7.61682 8.61951 7.61682 9.22084L6.41416 8.01818Z" fill="#F1F1F1"/>
<path d="M7.61684 24.8549C7.61684 25.2977 7.25787 25.6567 6.81507 25.6567H0.801771C0.358965 25.6567 0 25.2977 0 24.8549V18.8416C0 18.3988 0.358966 18.0399 0.801772 18.0399H6.81507C7.25787 18.0399 7.61684 18.3988 7.61684 18.8416V24.8549Z" fill="#F1F1F1"/>
<path d="M15.6354 32.8726C15.6354 33.3154 15.2764 33.6744 14.8336 33.6744H8.82031C8.3775 33.6744 8.01854 33.3154 8.01854 32.8726V26.8593C8.01854 26.4165 8.3775 26.0575 8.82031 26.0575H14.8336C15.2764 26.0575 15.6354 26.4165 15.6354 26.8593V32.8726Z" fill="#F1F1F1"/>
<path d="M6.41416 25.6567C7.01549 25.6567 8.01854 26.0575 8.01854 26.8593L8.82031 26.0575C8.01854 26.0575 7.61682 25.0554 7.61682 24.454L6.41416 25.6567Z" fill="#F1F1F1"/>
<path d="M25.6569 26.8598C25.6569 26.417 25.2979 26.0581 24.8551 26.0581H18.8418C18.399 26.0581 18.04 26.417 18.04 26.8598V32.8731C18.04 33.3159 18.399 33.6749 18.8418 33.6749H24.8551C25.2979 33.6749 25.6569 33.3159 25.6569 32.8731V26.8598Z" fill="#F1F1F1"/>
<path d="M33.6749 18.8416C33.6749 18.3988 33.3159 18.0398 32.8731 18.0398H26.8598C26.417 18.0398 26.0581 18.3988 26.0581 18.8416V24.8549C26.0581 25.2977 26.417 25.6567 26.8598 25.6567H32.8731C33.3159 25.6567 33.6749 25.2977 33.6749 24.8549V18.8416Z" fill="#F1F1F1"/>
<path d="M24.4542 26.0578C25.0555 26.0578 26.0581 25.6567 26.0581 24.8549L26.8598 25.6567C26.0581 25.6567 25.6568 26.6592 25.6568 27.2605L24.4542 26.0578Z" fill="#F1F1F1"/>
</svg>
