<svg width="216" height="46" viewBox="0 0 216 46" fill="none" xmlns="http://www.w3.org/2000/svg">
<path d="M66.0536 36C71.7336 36 74.6615 33.3844 74.6615 28.368V28.2899C74.6615 24.5423 72.7877 22.2781 69.1766 21.673V21.2826C72.2021 20.6775 73.7636 18.6475 73.7636 15.4073V15.3292C73.7636 10.957 71.0505 8.67323 65.7998 8.67323H53.3076V11.7573C55.4156 11.7573 55.5328 11.8548 55.5328 13.553V31.1202C55.5328 32.8184 55.4156 32.916 53.3076 32.916V36H66.0536ZM60.3735 12.4795H64.9019C67.6346 12.4795 68.9424 13.6311 68.9424 16.11V16.2076C68.9424 18.7646 67.6346 19.9748 64.9019 19.9748H60.3735V12.4795ZM60.3735 23.2345H65.0971C68.1031 23.2345 69.5475 24.6789 69.5475 27.6458V27.7434C69.5475 30.7494 68.1031 32.1743 65.0971 32.1743H60.3735V23.2345ZM85.6898 36V32.916C83.6013 32.916 83.4646 32.8184 83.4646 31.1202V8.67323H79.2095C79.0143 10.3714 78.702 10.6251 76.4963 10.6251V13.7092C78.5848 13.7092 78.7215 13.8068 78.7215 15.5049V31.1202C78.7215 32.8184 78.5848 32.916 76.4963 32.916V36H85.6898ZM96.5229 36.488C102.164 36.488 105.326 32.5061 105.326 25.9672V25.5378C105.326 18.9598 102.183 15.0169 96.5229 15.0169C90.8624 15.0169 87.7198 18.9598 87.7198 25.5378V25.9672C87.7198 32.5061 90.8624 36.488 96.5229 36.488ZM96.5229 33.2088C94.1806 33.2088 92.6191 31.1397 92.6191 26.6699V24.8351C92.6191 20.4237 93.8878 18.2766 96.5229 18.2766C99.1385 18.2766 100.427 20.4237 100.427 24.8351V26.6699C100.427 31.0812 99.1385 33.2088 96.5229 33.2088ZM116.94 36.488C121.956 36.488 124.884 33.8139 125.45 28.7779L120.805 28.2704C120.473 31.5887 119.185 33.1892 116.959 33.1892C114.305 33.1892 113.036 31.0226 113.036 26.4551V24.8155C113.036 20.3847 114.441 18.2766 117.272 18.2766C119.185 18.2766 120.375 19.2526 120.375 20.5213C120.375 21.751 119.224 21.9853 119.224 23.3126C119.224 24.6204 120.239 25.245 121.761 25.245C123.947 25.245 125.079 23.9372 125.079 21.5363C125.079 17.5544 122.015 15.0169 117.135 15.0169C111.357 15.0169 108.137 18.6475 108.137 25.5963V25.6744C108.137 32.7793 111.123 36.488 116.94 36.488ZM136.303 36V32.916C134.468 32.916 134.371 32.8184 134.371 31.1788V28.5632L137.006 26.1819L140.226 31.452C140.929 32.7598 140.734 32.916 138.704 32.916V36H146.707V32.916C145.282 32.916 145.184 32.8769 144.228 31.1397L140.148 23.3126L143.388 20.17C144.891 18.7841 145.301 18.5889 146.589 18.5889V15.5049H137.552V18.4913C140.48 18.5889 140.519 19.0769 138.294 21.2435L134.078 25.3426L133.746 25.1669C134.195 23.254 134.371 21.8291 134.371 19.4087V8.67323H130.115C129.92 10.3714 129.608 10.6251 127.402 10.6251V13.7092C129.491 13.7092 129.627 13.8068 129.627 15.5049V31.1202C129.627 32.8184 129.491 32.916 127.402 32.916V36H136.303ZM158.613 36.0195V32.9355C154.924 32.9355 154.67 32.8379 154.67 31.1397V25.1669C154.67 22.0048 156.095 19.7406 157.481 19.7406C158.789 19.7406 158.301 22.3171 160.175 22.3171C161.541 22.3171 162.302 20.9703 162.302 18.8622C162.302 16.6175 161.404 15.3488 159.648 15.3488C157.403 15.3488 155.432 17.2226 153.812 21.1655L153.402 21.0093C154.104 18.667 154.436 16.9298 154.495 15.5049H150.415C150.22 17.2031 149.908 17.4568 147.702 17.4568V20.5409C149.791 20.5409 149.927 20.6385 149.927 22.3366V31.1397C149.927 32.8379 149.791 32.9355 147.702 32.9355V36.0195H158.613ZM168.1 13.065C170.11 13.065 171.262 12.1672 171.262 10.6251C171.262 9.10265 170.11 8.18525 168.1 8.18525C166.089 8.18525 164.937 9.10265 164.937 10.6251C164.937 12.1672 166.089 13.065 168.1 13.065ZM172.706 36V32.916C170.618 32.916 170.481 32.8184 170.481 31.1202V15.5049H166.226C166.031 17.2031 165.718 17.4568 163.513 17.4568V20.5409C165.601 20.5409 165.738 20.6385 165.738 22.3366V31.1202C165.738 32.8184 165.601 32.916 163.513 32.916V36H172.706ZM181.704 36.3513C184.866 36.3513 186.896 34.3994 188.009 30.9445L188.419 31.1007C187.775 33.3454 187.443 34.985 187.423 36H194.372V32.916C192.284 32.916 192.147 32.8184 192.147 31.1202V8.67323H187.892C187.716 10.3714 187.404 10.6251 185.179 10.6251V13.2602C187.306 13.2602 187.423 13.3383 187.463 14.1971L187.521 15.4268C187.58 16.8517 187.814 18.4133 188.419 20.4042L188.009 20.5604C186.916 17.2421 184.886 15.1536 181.626 15.1536C177.293 15.1536 174.736 18.9403 174.736 25.323V26.1819C174.736 32.5646 177.313 36.3513 181.704 36.3513ZM183.305 33.1502C180.767 33.1502 179.538 31.0031 179.538 26.5137V25.0107C179.538 20.5018 180.767 18.3352 183.285 18.3352C185.96 18.3352 187.404 20.736 187.404 25.2059V26.3185C187.404 30.7689 185.96 33.1502 183.305 33.1502ZM205.303 33.2088C202.531 33.2088 201.106 31.1202 201.106 26.7675V26.5137H213.521C213.638 25.8696 213.677 25.2254 213.677 24.4837C213.677 18.4328 210.729 15.0365 205.303 15.0365C199.525 15.0365 196.402 18.8232 196.402 25.7329V25.811C196.402 32.6817 199.486 36.4685 205.186 36.4685C209.909 36.4685 212.915 33.97 213.599 29.5977L209.246 29.0707C208.855 31.9205 207.528 33.2088 205.303 33.2088ZM205.401 18.2766C207.743 18.2766 208.953 19.7601 208.953 22.5904V22.6099C208.953 23.3516 208.602 23.703 207.762 23.703H201.145C201.38 20.0919 202.785 18.2766 205.401 18.2766Z" fill="#F1F1F1"/>
<rect x="30.9328" y="12.0164" width="9.04189" height="9.04189" rx="0.951778" fill="#F1F1F1"/>
<rect x="21.4154" y="2.49841" width="9.04189" height="9.04189" rx="0.951778" fill="#F1F1F1"/>
<path d="M32.361 12.0167C31.6472 12.0167 30.4575 11.5408 30.4575 10.5891L29.5057 11.5408C30.4575 11.5408 30.9334 12.7306 30.9334 13.4444L32.361 12.0167Z" fill="#F1F1F1"/>
<rect width="9.04189" height="9.04189" rx="0.951778" transform="matrix(-1 0 0 1 9.04189 12.0164)" fill="#F1F1F1"/>
<rect width="9.04189" height="9.04189" rx="0.951778" transform="matrix(-1 0 0 1 18.5606 2.49841)" fill="#F1F1F1"/>
<path d="M7.61419 12.0167C8.32803 12.0167 9.51775 11.5408 9.51775 10.5891L10.4695 11.5408C9.51775 11.5408 9.04186 12.7306 9.04186 13.4444L7.61419 12.0167Z" fill="#F1F1F1"/>
<rect x="9.04189" y="32.9553" width="9.04189" height="9.04189" rx="0.951778" transform="rotate(180 9.04189 32.9553)" fill="#F1F1F1"/>
<rect x="18.5606" y="42.473" width="9.04189" height="9.04189" rx="0.951778" transform="rotate(180 18.5606 42.473)" fill="#F1F1F1"/>
<path d="M7.61419 32.9553C8.32803 32.9553 9.51775 33.4312 9.51775 34.3829L10.4695 33.4312C9.51775 33.4312 9.04186 32.2414 9.04186 31.5276L7.61419 32.9553Z" fill="#F1F1F1"/>
<rect width="9.04189" height="9.04189" rx="0.951778" transform="matrix(-1 0 0 1 30.4571 33.4318)" fill="#F1F1F1"/>
<rect width="9.04189" height="9.04189" rx="0.951778" transform="matrix(-1 0 0 1 39.9752 23.9134)" fill="#F1F1F1"/>
<path d="M29.0294 33.4315C29.7432 33.4315 30.9329 32.9556 30.9329 32.0038L31.8847 32.9556C30.9329 32.9556 30.457 34.1453 30.457 34.8591L29.0294 33.4315Z" fill="#F1F1F1"/>
</svg>
