<svg width="544" height="1885" viewBox="0 0 544 1885" fill="none" xmlns="http://www.w3.org/2000/svg">
<circle opacity="0.21" cx="336.5" cy="64.5" r="64.5" fill="url(#paint0_linear_1418_13770)"/>
<path d="M337.537 103.5C359.962 275.631 59.1911 423.507 388.269 772.5C665.493 1066.5 276.792 1533.66 276.79 1625" stroke="white" stroke-width="4"/>
<g filter="url(#filter0_ii_1418_13770)">
<path d="M313.306 103.103C313.486 110.161 318.354 116.202 325.178 118.084L325.597 118.2C333.801 120.463 342.458 120.338 350.546 117.84C357.041 115.833 361.47 109.876 361.51 103.061C361.566 93.6253 361.634 79.1506 361.649 62.7502C361.66 49.8541 361.284 36.9046 360.911 27.2748C360.56 18.2331 353.696 10.7871 344.724 9.52443L344.217 9.45312C339.118 8.73544 333.946 8.81041 328.885 9.67537C320.538 11.1021 314.434 18.256 314.278 26.7329C314.115 35.5427 313.844 47.8968 313.407 62.5609C312.906 79.3334 313.066 93.6878 313.306 103.103Z" fill="url(#paint1_linear_1418_13770)"/>
</g>
<path d="M319.105 83.3304C317.878 88.6553 321.156 94.3222 326.531 95.45L326.894 95.5261C333.907 96.9975 341.142 96.904 348.079 95.2523C353.209 94.0309 356.122 88.4903 354.834 83.3493C353.275 77.1281 351.697 68.3696 351.757 58.5586C351.807 50.4787 353.017 42.3524 354.269 36.0646C355.472 30.0244 351.317 23.8875 345.17 23.235L344.249 23.1373C339.098 22.5906 333.908 22.6574 328.787 23.3362C323.046 24.0972 319.439 30.2636 320.655 35.9464C321.888 41.7064 322.902 49.4357 322.505 58.4753C322.066 68.4496 320.533 77.1297 319.105 83.3304Z" fill="#A7A5A5"/>
<g filter="url(#filter1_di_1418_13770)">
<path fill-rule="evenodd" clip-rule="evenodd" d="M316.229 99.5525C316.685 107.419 321.763 114.304 329.077 117.311C334.353 119.48 340.274 119.538 345.535 117.45C353.11 114.444 358.134 107.223 358.301 99.049C358.35 96.6664 358.401 94.0638 358.453 91.3236C358.46 90.9245 357.933 90.7288 357.651 91.0122C357.357 91.3088 356.889 90.9866 356.988 90.5806C357.379 88.9779 357.419 87.2653 357.049 85.5768C355.521 78.6062 353.933 68.5983 354.011 57.338C354.074 48.4608 355.412 39.533 356.815 32.5566C357.272 30.2811 357.065 27.9911 356.331 25.9161C356.208 25.5684 356.612 25.2579 356.881 25.5098C357.125 25.7384 357.548 25.5525 357.524 25.2184C357.411 23.6127 357.303 22.171 357.208 20.9363C356.989 18.0837 355.02 15.6693 352.276 14.8327L351.336 14.5461C341.732 11.618 331.493 11.6994 322.003 14.7794C319.52 15.5855 317.774 17.7922 317.584 20.4018C317.478 21.8559 317.351 23.6401 317.21 25.6928C317.178 26.1666 317.856 26.4081 318.175 26.0558C318.495 25.7019 319.029 26.0702 318.904 26.531C318.395 28.4222 318.308 30.45 318.728 32.4241C320.091 38.8231 321.19 47.333 320.739 57.2562C320.236 68.3194 318.508 77.9583 316.888 84.8777C316.529 86.4117 316.502 87.9719 316.763 89.4662C316.812 89.7464 316.462 89.9214 316.304 89.6852C316.144 89.4478 315.72 89.5649 315.733 89.8507C315.886 93.3417 316.059 96.6268 316.229 99.5525ZM319.974 85.1796C318.818 90.2553 321.935 95.6265 327.049 96.7295L327.405 96.8062C334.327 98.2992 341.48 98.2047 348.325 96.5299C353.205 95.3361 355.976 90.0792 354.759 85.1808C353.216 78.9697 351.612 70.0765 351.67 60.0861C351.718 51.8441 352.947 43.5536 354.189 37.237C355.326 31.4587 351.353 25.6152 345.478 24.9739L344.583 24.8762C339.477 24.3189 334.328 24.3866 329.252 25.0779C323.76 25.8258 320.308 31.6982 321.473 37.1367C322.709 42.911 323.756 50.7691 323.363 60.0014C322.93 70.1697 321.384 78.9855 319.974 85.1796Z" fill="url(#paint2_linear_1418_13770)"/>
</g>
<g filter="url(#filter2_di_1418_13770)">
<path d="M316.869 91.6723C316.597 92.5435 317.138 93.4793 318.036 93.6678L337.215 97.6913C337.432 97.7369 337.656 97.734 337.871 97.6828L356.12 93.3377C357.007 93.1266 357.503 92.1788 357.199 91.3138C355.651 86.9144 351.662 74.0482 351.757 58.5586C351.842 44.8639 355.26 31.036 356.563 26.2522C356.812 25.3401 356.178 24.4035 355.234 24.3033L336.674 22.3333C336.555 22.3208 336.436 22.3223 336.318 22.3379L319.305 24.5931C318.318 24.7239 317.722 25.7704 318.062 26.7108C319.641 31.0741 323.193 42.8061 322.505 58.4753C321.797 74.5722 318.238 87.2983 316.869 91.6723Z" fill="url(#paint3_linear_1418_13770)"/>
</g>
<g filter="url(#filter3_d_1418_13770)">
<g filter="url(#filter4_d_1418_13770)">
<mask id="path-7-inside-1_1418_13770" fill="white">
<path d="M357.201 108.501C356.009 110.651 354.418 111.65 353.014 112.046C351.912 112.357 351.473 111.097 352.179 110.192C353.89 107.999 355.436 105.233 356.612 102.813C357.232 101.536 358.857 101.723 358.746 103.13C358.611 104.83 358.18 106.735 357.201 108.501Z"/>
</mask>
<path d="M357.201 108.501C356.009 110.651 354.418 111.65 353.014 112.046C351.912 112.357 351.473 111.097 352.179 110.192C353.89 107.999 355.436 105.233 356.612 102.813C357.232 101.536 358.857 101.723 358.746 103.13C358.611 104.83 358.18 106.735 357.201 108.501Z" fill="white"/>
<path d="M353.014 112.046L354.136 116.228L354.136 116.228L353.014 112.046ZM357.201 108.501L361.009 110.554L361.009 110.554L357.201 108.501ZM358.746 103.13L363.093 103.399L358.746 103.13ZM356.612 102.813L360.53 104.654L360.53 104.654L356.612 102.813ZM352.179 110.192L355.604 112.825L355.604 112.825L352.179 110.192ZM354.136 116.228C356.659 115.516 359.23 113.762 361.009 110.554L353.393 106.447C353.068 107.033 352.751 107.355 352.522 107.535C352.289 107.718 352.073 107.813 351.892 107.864L354.136 116.228ZM361.009 110.554C362.37 108.099 362.922 105.546 363.093 103.399L354.399 102.86C354.299 104.115 353.989 105.37 353.393 106.447L361.009 110.554ZM352.693 100.972C351.582 103.261 350.193 105.715 348.755 107.559L355.604 112.825C357.588 110.282 359.291 107.205 360.53 104.654L352.693 100.972ZM363.093 103.399C363.188 102.199 362.933 100.838 362.056 99.6674C361.178 98.4961 359.906 97.8297 358.605 97.6556C355.989 97.3056 353.717 98.8649 352.693 100.972L360.53 104.654C360.127 105.485 358.977 106.499 357.301 106.274C356.47 106.163 355.622 105.727 355.037 104.947C354.453 104.167 354.359 103.357 354.399 102.86L363.093 103.399ZM351.892 107.864C352.468 107.702 353.347 107.652 354.26 108.089C355.155 108.517 355.696 109.23 355.96 109.875C356.455 111.085 356.105 112.182 355.604 112.825L348.755 107.559C347.547 109.106 347.064 111.286 347.877 113.275C348.3 114.31 349.114 115.335 350.379 115.941C351.662 116.555 353.009 116.546 354.136 116.228L351.892 107.864Z" fill="white" mask="url(#path-7-inside-1_1418_13770)"/>
</g>
</g>
<g filter="url(#filter5_d_1418_13770)">
<mask id="path-9-inside-2_1418_13770" fill="white">
<path d="M316.658 108.223C317.848 110.543 319.518 111.619 320.99 112.046C322.085 112.364 322.563 111.107 321.885 110.189C320.118 107.797 318.555 104.759 317.397 102.139C316.825 100.846 315.189 100.992 315.235 102.402C315.295 104.223 315.668 106.293 316.658 108.223Z"/>
</mask>
<path d="M316.658 108.223C317.848 110.543 319.518 111.619 320.99 112.046C322.085 112.364 322.563 111.107 321.885 110.189C320.118 107.797 318.555 104.759 317.397 102.139C316.825 100.846 315.189 100.992 315.235 102.402C315.295 104.223 315.668 106.293 316.658 108.223Z" fill="white"/>
<path d="M320.99 112.046L319.799 116.227L319.799 116.227L320.99 112.046ZM316.658 108.223L320.531 106.254L316.658 108.223ZM315.235 102.402L319.588 102.284L315.235 102.402ZM317.397 102.139L321.379 100.398L317.397 102.139ZM321.885 110.189L325.383 107.615L325.383 107.615L321.885 110.189ZM319.799 116.227C317.199 115.473 314.541 113.616 312.785 110.191L320.531 106.254C320.865 106.906 321.206 107.27 321.461 107.478C321.721 107.69 321.968 107.803 322.18 107.865L319.799 116.227ZM312.785 110.191C311.424 107.539 310.957 104.795 310.882 102.52L319.588 102.284C319.633 103.652 319.912 105.047 320.531 106.254L312.785 110.191ZM321.379 100.398C322.478 102.885 323.89 105.594 325.383 107.615L318.387 112.762C316.346 110 314.632 106.632 313.415 103.881L321.379 100.398ZM310.882 102.52C310.842 101.311 311.163 99.9635 312.086 98.8274C313.007 97.6929 314.295 97.0672 315.593 96.9276C318.208 96.6465 320.428 98.2495 321.379 100.398L313.415 103.881C313.794 104.736 314.91 105.765 316.575 105.586C317.398 105.497 318.25 105.092 318.86 104.341C319.471 103.588 319.605 102.788 319.588 102.284L310.882 102.52ZM322.18 107.865C321.606 107.698 320.74 107.647 319.834 108.068C318.947 108.48 318.395 109.171 318.116 109.805C317.59 110.998 317.899 112.103 318.387 112.762L325.383 107.615C326.548 109.193 326.959 111.385 326.089 113.357C325.638 114.38 324.804 115.383 323.541 115.97C322.258 116.565 320.921 116.553 319.799 116.227L322.18 107.865Z" fill="white" mask="url(#path-9-inside-2_1418_13770)"/>
</g>
<g filter="url(#filter6_di_1418_13770)">
<path fill-rule="evenodd" clip-rule="evenodd" d="M323.87 99.909C319.483 98.915 316.188 95.269 315.874 90.7913C315.413 84.2024 314.965 73.7049 315.458 61.162C315.916 49.5193 316.458 39.7696 316.86 33.2619C316.982 31.2825 317.633 29.4516 318.68 27.9083C318.387 29.5077 318.389 31.1761 318.736 32.8064C320.069 39.0702 321.126 47.3346 320.683 56.9458C320.188 67.6807 318.502 77.0534 316.903 83.8431C315.474 89.913 319.222 96.4067 325.365 97.6518L325.921 97.7644C333.717 99.3445 341.746 99.1915 349.436 97.3165C354.953 95.9714 358.162 90.1305 356.934 84.5587C355.425 77.709 353.878 67.9688 353.955 57.0277C354.016 48.4196 355.314 39.7633 356.693 32.942C356.928 31.7818 356.991 30.6175 356.899 29.4792C357.512 30.7287 357.901 32.1068 358.014 33.5653C358.565 40.6311 359.171 50.7895 359.128 60.8737C359.076 73.1563 358.691 83.8993 358.388 90.6003C358.191 94.9498 355.174 98.6025 350.964 99.6797C342.288 101.899 333.184 102.02 324.404 100.03L323.87 99.909Z" fill="url(#paint4_linear_1418_13770)"/>
</g>
<g filter="url(#filter7_ii_1418_13770)">
<path fill-rule="evenodd" clip-rule="evenodd" d="M315.38 96.9042C315.865 105.074 321.201 112.186 328.837 115.216C334.116 117.311 339.993 117.367 345.253 115.353C353.153 112.329 358.422 104.863 358.599 96.3757C358.648 94.0738 358.698 91.5785 358.748 88.9618C358.755 88.5813 358.252 88.3978 357.988 88.6726C357.711 88.9618 357.258 88.6586 357.353 88.2697C357.772 86.5607 357.814 84.7327 357.414 82.9338C355.89 76.0756 354.367 66.4849 354.444 55.7431C354.504 47.322 355.775 38.8551 357.155 32.086C357.661 29.6055 357.412 27.1025 356.57 24.8519C356.436 24.4941 356.854 24.1683 357.131 24.431C357.38 24.6675 357.815 24.4771 357.79 24.1341C357.679 22.6168 357.574 21.2438 357.479 20.0515C357.24 17.0377 355.139 14.4867 352.23 13.6309L351.284 13.3523C341.507 10.4755 331.132 10.554 321.473 13.5779C318.841 14.4016 316.982 16.7268 316.775 19.4822C316.688 20.6437 316.588 22.003 316.478 23.531C316.435 24.1424 317.263 24.487 317.718 24.0764C318.189 23.6517 318.846 24.209 318.639 24.8085C317.865 27.0534 317.663 29.5303 318.171 31.9244C319.493 38.1549 320.512 46.2672 320.068 55.658C319.571 66.1712 317.907 75.3849 316.295 82.1652C315.828 84.1314 315.882 86.1437 316.369 88.0233C316.472 88.4189 316.003 88.7241 315.736 88.4149C315.476 88.1149 314.925 88.3055 314.943 88.7017C315.08 91.624 315.231 94.3896 315.38 96.9042ZM319.396 82.7222C318.17 88.0323 321.444 93.6904 326.809 94.8073L327.168 94.8819C334.089 96.323 341.224 96.2327 348.069 94.6174C353.189 93.4094 356.092 87.8749 354.803 82.7469C353.265 76.6301 351.719 68.0626 351.775 58.4745C351.821 50.5823 353.002 42.6454 354.232 36.4755C355.432 30.4584 351.29 24.334 345.164 23.6882L344.251 23.592C339.175 23.0569 334.061 23.1213 329.015 23.7839C323.296 24.5347 319.706 30.6873 320.919 36.348C322.13 42.0042 323.12 49.5617 322.732 58.3878C322.303 68.1351 320.803 76.6268 319.396 82.7222Z" fill="url(#paint5_linear_1418_13770)"/>
</g>
<g filter="url(#filter8_ii_1418_13770)">
<path d="M321.049 73.9764C331.259 77.3171 342.257 77.4028 352.524 74.2219L352.896 74.1066C352.896 74.1066 352.032 68.4239 352.08 56.3527C352.468 44.3574 353.717 38.9725 353.717 38.9725L352.482 38.7402C342.2 36.8061 331.639 36.8791 321.381 38.9549C321.381 38.9549 322.628 48.1871 322.523 56.2795C322.433 63.2338 321.049 73.9764 321.049 73.9764Z" fill="url(#paint6_linear_1418_13770)"/>
</g>
<g filter="url(#filter9_dddddd_1418_13770)">
<circle cx="271.796" cy="1613.5" r="24.5" fill="url(#paint7_linear_1418_13770)"/>
</g>
<path d="M288.125 1611.75H285.378C284.987 1608.67 283.584 1605.81 281.388 1603.61C279.193 1601.42 276.33 1600.01 273.25 1599.62V1596.88C273.25 1596.64 273.158 1596.42 272.994 1596.26C272.83 1596.09 272.607 1596 272.375 1596H270.625C270.393 1596 270.17 1596.09 270.006 1596.26C269.842 1596.42 269.75 1596.64 269.75 1596.88V1599.62C266.67 1600.01 263.807 1601.42 261.612 1603.61C259.416 1605.81 258.013 1608.67 257.623 1611.75H254.875C254.643 1611.75 254.42 1611.84 254.256 1612.01C254.092 1612.17 254 1612.39 254 1612.62V1614.38C254 1614.61 254.092 1614.83 254.256 1614.99C254.42 1615.16 254.643 1615.25 254.875 1615.25H257.623C258.013 1618.33 259.416 1621.19 261.612 1623.39C263.807 1625.58 266.67 1626.99 269.75 1627.38V1630.12C269.75 1630.36 269.842 1630.58 270.006 1630.74C270.17 1630.91 270.393 1631 270.625 1631H272.375C272.607 1631 272.83 1630.91 272.994 1630.74C273.158 1630.58 273.25 1630.36 273.25 1630.12V1627.38C276.33 1626.99 279.193 1625.58 281.388 1623.39C283.584 1621.19 284.987 1618.33 285.378 1615.25H288.125C288.357 1615.25 288.58 1615.16 288.744 1614.99C288.908 1614.83 289 1614.61 289 1614.38V1612.62C289 1612.39 288.908 1612.17 288.744 1612.01C288.58 1611.84 288.357 1611.75 288.125 1611.75ZM271.5 1624C269.423 1624 267.393 1623.38 265.667 1622.23C263.94 1621.08 262.594 1619.44 261.799 1617.52C261.005 1615.6 260.797 1613.49 261.202 1611.45C261.607 1609.41 262.607 1607.54 264.075 1606.08C265.544 1604.61 267.415 1603.61 269.452 1603.2C271.488 1602.8 273.6 1603 275.518 1603.8C277.437 1604.59 279.077 1605.94 280.23 1607.67C281.384 1609.39 282 1611.42 282 1613.5C282 1616.28 280.894 1618.96 278.925 1620.92C276.955 1622.89 274.285 1624 271.5 1624ZM271.5 1610C270.808 1610 270.131 1610.21 269.556 1610.59C268.98 1610.97 268.531 1611.52 268.266 1612.16C268.002 1612.8 267.932 1613.5 268.067 1614.18C268.202 1614.86 268.536 1615.49 269.025 1615.97C269.515 1616.46 270.138 1616.8 270.817 1616.93C271.496 1617.07 272.2 1617 272.839 1616.73C273.479 1616.47 274.026 1616.02 274.41 1615.44C274.795 1614.87 275 1614.19 275 1613.5C275 1612.57 274.631 1611.68 273.975 1611.03C273.318 1610.37 272.428 1610 271.5 1610Z" fill="#141414"/>
<defs>
<filter id="filter0_ii_1418_13770" x="313.078" y="3.15935" width="52.9252" height="116.651" filterUnits="userSpaceOnUse" color-interpolation-filters="sRGB">
<feFlood flood-opacity="0" result="BackgroundImageFix"/>
<feBlend mode="normal" in="SourceGraphic" in2="BackgroundImageFix" result="shape"/>
<feColorMatrix in="SourceAlpha" type="matrix" values="0 0 0 0 0 0 0 0 0 0 0 0 0 0 0 0 0 0 127 0" result="hardAlpha"/>
<feOffset dx="4.35467" dy="-5.80623"/>
<feGaussianBlur stdDeviation="17.4187"/>
<feComposite in2="hardAlpha" operator="arithmetic" k2="-1" k3="1"/>
<feColorMatrix type="matrix" values="0 0 0 0 0 0 0 0 0 0 0 0 0 0 0 0 0 0 0.07 0"/>
<feBlend mode="normal" in2="shape" result="effect1_innerShadow_1418_13770"/>
<feColorMatrix in="SourceAlpha" type="matrix" values="0 0 0 0 0 0 0 0 0 0 0 0 0 0 0 0 0 0 127 0" result="hardAlpha"/>
<feOffset dy="-0.725779"/>
<feGaussianBlur stdDeviation="1.45156"/>
<feComposite in2="hardAlpha" operator="arithmetic" k2="-1" k3="1"/>
<feColorMatrix type="matrix" values="0 0 0 0 0 0 0 0 0 0 0 0 0 0 0 0 0 0 0.25 0"/>
<feBlend mode="normal" in2="effect1_innerShadow_1418_13770" result="effect2_innerShadow_1418_13770"/>
</filter>
<filter id="filter1_di_1418_13770" x="312.83" y="12.4082" width="46.3736" height="109.473" filterUnits="userSpaceOnUse" color-interpolation-filters="sRGB">
<feFlood flood-opacity="0" result="BackgroundImageFix"/>
<feColorMatrix in="SourceAlpha" type="matrix" values="0 0 0 0 0 0 0 0 0 0 0 0 0 0 0 0 0 0 127 0" result="hardAlpha"/>
<feOffset dy="0.750549"/>
<feGaussianBlur stdDeviation="0.375275"/>
<feColorMatrix type="matrix" values="0 0 0 0 0.925374 0 0 0 0 0.925374 0 0 0 0 0.925374 0 0 0 0.37 0"/>
<feBlend mode="normal" in2="BackgroundImageFix" result="effect1_dropShadow_1418_13770"/>
<feBlend mode="normal" in="SourceGraphic" in2="effect1_dropShadow_1418_13770" result="shape"/>
<feColorMatrix in="SourceAlpha" type="matrix" values="0 0 0 0 0 0 0 0 0 0 0 0 0 0 0 0 0 0 127 0" result="hardAlpha"/>
<feOffset dx="-2.90311" dy="3.62889"/>
<feGaussianBlur stdDeviation="1.45156"/>
<feComposite in2="hardAlpha" operator="arithmetic" k2="-1" k3="1"/>
<feColorMatrix type="matrix" values="0 0 0 0 0 0 0 0 0 0 0 0 0 0 0 0 0 0 0.8 0"/>
<feBlend mode="normal" in2="shape" result="effect2_innerShadow_1418_13770"/>
</filter>
<filter id="filter2_di_1418_13770" x="313.895" y="22.325" width="44.1441" height="78.3016" filterUnits="userSpaceOnUse" color-interpolation-filters="sRGB">
<feFlood flood-opacity="0" result="BackgroundImageFix"/>
<feColorMatrix in="SourceAlpha" type="matrix" values="0 0 0 0 0 0 0 0 0 0 0 0 0 0 0 0 0 0 127 0" result="hardAlpha"/>
<feOffset dy="0.750549"/>
<feGaussianBlur stdDeviation="0.375275"/>
<feColorMatrix type="matrix" values="0 0 0 0 0.925374 0 0 0 0 0.925374 0 0 0 0 0.925374 0 0 0 0.37 0"/>
<feBlend mode="normal" in2="BackgroundImageFix" result="effect1_dropShadow_1418_13770"/>
<feBlend mode="normal" in="SourceGraphic" in2="effect1_dropShadow_1418_13770" result="shape"/>
<feColorMatrix in="SourceAlpha" type="matrix" values="0 0 0 0 0 0 0 0 0 0 0 0 0 0 0 0 0 0 127 0" result="hardAlpha"/>
<feOffset dx="-2.90312" dy="3.62889"/>
<feGaussianBlur stdDeviation="1.45156"/>
<feComposite in2="hardAlpha" operator="arithmetic" k2="-1" k3="1"/>
<feColorMatrix type="matrix" values="0 0 0 0 0 0 0 0 0 0 0 0 0 0 0 0 0 0 0.8 0"/>
<feBlend mode="normal" in2="shape" result="effect2_innerShadow_1418_13770"/>
</filter>
<filter id="filter3_d_1418_13770" x="350.386" y="99.0532" width="9.81693" height="13.0411" filterUnits="userSpaceOnUse" color-interpolation-filters="sRGB">
<feFlood flood-opacity="0" result="BackgroundImageFix"/>
<feColorMatrix in="SourceAlpha" type="matrix" values="0 0 0 0 0 0 0 0 0 0 0 0 0 0 0 0 0 0 127 0" result="hardAlpha"/>
<feOffset dy="-1.45156"/>
<feGaussianBlur stdDeviation="0.725779"/>
<feColorMatrix type="matrix" values="0 0 0 0 0 0 0 0 0 0 0 0 0 0 0 0 0 0 0.25 0"/>
<feBlend mode="normal" in2="BackgroundImageFix" result="effect1_dropShadow_1418_13770"/>
<feBlend mode="normal" in="SourceGraphic" in2="effect1_dropShadow_1418_13770" result="shape"/>
</filter>
<filter id="filter4_d_1418_13770" x="351.111" y="101.956" width="8.36538" height="11.5895" filterUnits="userSpaceOnUse" color-interpolation-filters="sRGB">
<feFlood flood-opacity="0" result="BackgroundImageFix"/>
<feColorMatrix in="SourceAlpha" type="matrix" values="0 0 0 0 0 0 0 0 0 0 0 0 0 0 0 0 0 0 127 0" result="hardAlpha"/>
<feOffset dy="0.725779"/>
<feGaussianBlur stdDeviation="0.362889"/>
<feColorMatrix type="matrix" values="0 0 0 0 1 0 0 0 0 1 0 0 0 0 1 0 0 0 0.25 0"/>
<feBlend mode="normal" in2="BackgroundImageFix" result="effect1_dropShadow_1418_13770"/>
<feBlend mode="normal" in="SourceGraphic" in2="effect1_dropShadow_1418_13770" result="shape"/>
</filter>
<filter id="filter5_d_1418_13770" x="313.783" y="98.3479" width="9.86747" height="13.7483" filterUnits="userSpaceOnUse" color-interpolation-filters="sRGB">
<feFlood flood-opacity="0" result="BackgroundImageFix"/>
<feColorMatrix in="SourceAlpha" type="matrix" values="0 0 0 0 0 0 0 0 0 0 0 0 0 0 0 0 0 0 127 0" result="hardAlpha"/>
<feOffset dy="-1.45156"/>
<feGaussianBlur stdDeviation="0.725779"/>
<feColorMatrix type="matrix" values="0 0 0 0 0 0 0 0 0 0 0 0 0 0 0 0 0 0 0.25 0"/>
<feBlend mode="normal" in2="BackgroundImageFix" result="effect1_dropShadow_1418_13770"/>
<feBlend mode="normal" in="SourceGraphic" in2="effect1_dropShadow_1418_13770" result="shape"/>
</filter>
<filter id="filter6_di_1418_13770" x="312.34" y="27.9082" width="47.5404" height="76.4331" filterUnits="userSpaceOnUse" color-interpolation-filters="sRGB">
<feFlood flood-opacity="0" result="BackgroundImageFix"/>
<feColorMatrix in="SourceAlpha" type="matrix" values="0 0 0 0 0 0 0 0 0 0 0 0 0 0 0 0 0 0 127 0" result="hardAlpha"/>
<feOffset dy="0.750549"/>
<feGaussianBlur stdDeviation="0.375275"/>
<feColorMatrix type="matrix" values="0 0 0 0 0.925374 0 0 0 0 0.925374 0 0 0 0 0.925374 0 0 0 0.37 0"/>
<feBlend mode="normal" in2="BackgroundImageFix" result="effect1_dropShadow_1418_13770"/>
<feBlend mode="normal" in="SourceGraphic" in2="effect1_dropShadow_1418_13770" result="shape"/>
<feColorMatrix in="SourceAlpha" type="matrix" values="0 0 0 0 0 0 0 0 0 0 0 0 0 0 0 0 0 0 127 0" result="hardAlpha"/>
<feOffset dx="-2.90311" dy="3.62889"/>
<feGaussianBlur stdDeviation="1.45156"/>
<feComposite in2="hardAlpha" operator="arithmetic" k2="-1" k3="1"/>
<feColorMatrix type="matrix" values="0 0 0 0 0 0 0 0 0 0 0 0 0 0 0 0 0 0 0.8 0"/>
<feBlend mode="normal" in2="shape" result="effect2_innerShadow_1418_13770"/>
</filter>
<filter id="filter7_ii_1418_13770" x="314.943" y="5.4445" width="48.1596" height="111.382" filterUnits="userSpaceOnUse" color-interpolation-filters="sRGB">
<feFlood flood-opacity="0" result="BackgroundImageFix"/>
<feBlend mode="normal" in="SourceGraphic" in2="BackgroundImageFix" result="shape"/>
<feColorMatrix in="SourceAlpha" type="matrix" values="0 0 0 0 0 0 0 0 0 0 0 0 0 0 0 0 0 0 127 0" result="hardAlpha"/>
<feOffset dx="4.35467" dy="-5.80623"/>
<feGaussianBlur stdDeviation="17.4187"/>
<feComposite in2="hardAlpha" operator="arithmetic" k2="-1" k3="1"/>
<feColorMatrix type="matrix" values="0 0 0 0 0 0 0 0 0 0 0 0 0 0 0 0 0 0 0.07 0"/>
<feBlend mode="normal" in2="shape" result="effect1_innerShadow_1418_13770"/>
<feColorMatrix in="SourceAlpha" type="matrix" values="0 0 0 0 0 0 0 0 0 0 0 0 0 0 0 0 0 0 127 0" result="hardAlpha"/>
<feOffset dy="-0.725779"/>
<feGaussianBlur stdDeviation="1.45156"/>
<feComposite in2="hardAlpha" operator="arithmetic" k2="-1" k3="1"/>
<feColorMatrix type="matrix" values="0 0 0 0 0 0 0 0 0 0 0 0 0 0 0 0 0 0 0.09 0"/>
<feBlend mode="normal" in2="effect1_innerShadow_1418_13770" result="effect2_innerShadow_1418_13770"/>
</filter>
<filter id="filter8_ii_1418_13770" x="321.05" y="31.5356" width="37.0222" height="45.0108" filterUnits="userSpaceOnUse" color-interpolation-filters="sRGB">
<feFlood flood-opacity="0" result="BackgroundImageFix"/>
<feBlend mode="normal" in="SourceGraphic" in2="BackgroundImageFix" result="shape"/>
<feColorMatrix in="SourceAlpha" type="matrix" values="0 0 0 0 0 0 0 0 0 0 0 0 0 0 0 0 0 0 127 0" result="hardAlpha"/>
<feOffset dx="4.35467" dy="-5.80623"/>
<feGaussianBlur stdDeviation="17.4187"/>
<feComposite in2="hardAlpha" operator="arithmetic" k2="-1" k3="1"/>
<feColorMatrix type="matrix" values="0 0 0 0 0 0 0 0 0 0 0 0 0 0 0 0 0 0 0.07 0"/>
<feBlend mode="normal" in2="shape" result="effect1_innerShadow_1418_13770"/>
<feColorMatrix in="SourceAlpha" type="matrix" values="0 0 0 0 0 0 0 0 0 0 0 0 0 0 0 0 0 0 127 0" result="hardAlpha"/>
<feOffset dy="-0.725779"/>
<feGaussianBlur stdDeviation="1.45156"/>
<feComposite in2="hardAlpha" operator="arithmetic" k2="-1" k3="1"/>
<feColorMatrix type="matrix" values="0 0 0 0 0 0 0 0 0 0 0 0 0 0 0 0 0 0 0.25 0"/>
<feBlend mode="normal" in2="effect1_innerShadow_1418_13770" result="effect2_innerShadow_1418_13770"/>
</filter>
<filter id="filter9_dddddd_1418_13770" x="0.335648" y="1342.04" width="542.92" height="542.92" filterUnits="userSpaceOnUse" color-interpolation-filters="sRGB">
<feFlood flood-opacity="0" result="BackgroundImageFix"/>
<feColorMatrix in="SourceAlpha" type="matrix" values="0 0 0 0 0 0 0 0 0 0 0 0 0 0 0 0 0 0 127 0" result="hardAlpha"/>
<feOffset/>
<feGaussianBlur stdDeviation="2.94"/>
<feColorMatrix type="matrix" values="0 0 0 0 1 0 0 0 0 1 0 0 0 0 1 0 0 0 1 0"/>
<feBlend mode="normal" in2="BackgroundImageFix" result="effect1_dropShadow_1418_13770"/>
<feColorMatrix in="SourceAlpha" type="matrix" values="0 0 0 0 0 0 0 0 0 0 0 0 0 0 0 0 0 0 127 0" result="hardAlpha"/>
<feOffset/>
<feGaussianBlur stdDeviation="5.88"/>
<feColorMatrix type="matrix" values="0 0 0 0 1 0 0 0 0 1 0 0 0 0 1 0 0 0 1 0"/>
<feBlend mode="normal" in2="effect1_dropShadow_1418_13770" result="effect2_dropShadow_1418_13770"/>
<feColorMatrix in="SourceAlpha" type="matrix" values="0 0 0 0 0 0 0 0 0 0 0 0 0 0 0 0 0 0 127 0" result="hardAlpha"/>
<feOffset/>
<feGaussianBlur stdDeviation="20.58"/>
<feColorMatrix type="matrix" values="0 0 0 0 1 0 0 0 0 1 0 0 0 0 1 0 0 0 1 0"/>
<feBlend mode="normal" in2="effect2_dropShadow_1418_13770" result="effect3_dropShadow_1418_13770"/>
<feColorMatrix in="SourceAlpha" type="matrix" values="0 0 0 0 0 0 0 0 0 0 0 0 0 0 0 0 0 0 127 0" result="hardAlpha"/>
<feOffset/>
<feGaussianBlur stdDeviation="41.16"/>
<feColorMatrix type="matrix" values="0 0 0 0 1 0 0 0 0 1 0 0 0 0 1 0 0 0 1 0"/>
<feBlend mode="normal" in2="effect3_dropShadow_1418_13770" result="effect4_dropShadow_1418_13770"/>
<feColorMatrix in="SourceAlpha" type="matrix" values="0 0 0 0 0 0 0 0 0 0 0 0 0 0 0 0 0 0 127 0" result="hardAlpha"/>
<feOffset/>
<feGaussianBlur stdDeviation="70.56"/>
<feColorMatrix type="matrix" values="0 0 0 0 1 0 0 0 0 1 0 0 0 0 1 0 0 0 1 0"/>
<feBlend mode="normal" in2="effect4_dropShadow_1418_13770" result="effect5_dropShadow_1418_13770"/>
<feColorMatrix in="SourceAlpha" type="matrix" values="0 0 0 0 0 0 0 0 0 0 0 0 0 0 0 0 0 0 127 0" result="hardAlpha"/>
<feOffset/>
<feGaussianBlur stdDeviation="123.48"/>
<feColorMatrix type="matrix" values="0 0 0 0 1 0 0 0 0 1 0 0 0 0 1 0 0 0 1 0"/>
<feBlend mode="normal" in2="effect5_dropShadow_1418_13770" result="effect6_dropShadow_1418_13770"/>
<feBlend mode="normal" in="SourceGraphic" in2="effect6_dropShadow_1418_13770" result="shape"/>
</filter>
<linearGradient id="paint0_linear_1418_13770" x1="268.728" y1="-7.67313" x2="394.215" y2="135.325" gradientUnits="userSpaceOnUse">
<stop stop-color="#E8BF4B"/>
<stop offset="1" stop-color="white"/>
</linearGradient>
<linearGradient id="paint1_linear_1418_13770" x1="333.062" y1="13.7165" x2="299.347" y2="22.9445" gradientUnits="userSpaceOnUse">
<stop stop-color="#D8D8D8"/>
<stop offset="1" stop-color="white"/>
</linearGradient>
<linearGradient id="paint2_linear_1418_13770" x1="357.953" y1="-191.126" x2="251.443" y2="-151.291" gradientUnits="userSpaceOnUse">
<stop stop-color="#E8EAE9"/>
<stop offset="0.498386" stop-color="#707072"/>
<stop offset="1" stop-color="#2F3032"/>
</linearGradient>
<linearGradient id="paint3_linear_1418_13770" x1="352.446" y1="-121.982" x2="259.998" y2="-71.1244" gradientUnits="userSpaceOnUse">
<stop stop-color="#E8EAE9"/>
<stop offset="0.498386" stop-color="#707072"/>
<stop offset="1" stop-color="#2F3032"/>
</linearGradient>
<linearGradient id="paint4_linear_1418_13770" x1="358.144" y1="-112.355" x2="263.223" y2="-59.3769" gradientUnits="userSpaceOnUse">
<stop stop-color="#E8EAE9"/>
<stop offset="0.498386" stop-color="#707072"/>
<stop offset="1" stop-color="#2F3032"/>
</linearGradient>
<linearGradient id="paint5_linear_1418_13770" x1="334.35" y1="16.1947" x2="303.96" y2="23.4169" gradientUnits="userSpaceOnUse">
<stop stop-color="#D8D8D8"/>
<stop offset="1" stop-color="white"/>
</linearGradient>
<linearGradient id="paint6_linear_1418_13770" x1="348.915" y1="28.7901" x2="315.516" y2="42.5273" gradientUnits="userSpaceOnUse">
<stop stop-color="#D2D2D2"/>
<stop offset="0.350909" stop-color="#CACACA"/>
<stop offset="1" stop-color="#F6F6F6"/>
</linearGradient>
<linearGradient id="paint7_linear_1418_13770" x1="246.053" y1="1586.09" x2="293.718" y2="1640.4" gradientUnits="userSpaceOnUse">
<stop stop-color="white"/>
<stop offset="1" stop-color="white"/>
</linearGradient>
</defs>
</svg>
