<svg width="63" height="63" viewBox="0 0 63 63" fill="none" xmlns="http://www.w3.org/2000/svg">
<path d="M31.5001 0H31.5C14.2446 0 0.256348 13.9883 0.256348 31.2437V31.2438C0.256348 48.4992 14.2446 62.4875 31.5 62.4875H31.5001C48.7556 62.4875 62.7439 48.4992 62.7439 31.2438V31.2437C62.7439 13.9883 48.7556 0 31.5001 0Z" fill="white"/>
<path d="M22.5867 36.8625C22.7532 36.696 22.9791 36.6025 23.2145 36.6025H44.9404C45.3362 36.6025 45.5343 37.0811 45.2543 37.3608L40.9613 41.6504C40.7948 41.8169 40.569 41.9103 40.3335 41.9103H18.6076C18.2119 41.9103 18.0137 41.4318 18.2937 41.152L22.5867 36.8625Z" fill="black"/>
<path d="M22.5866 20.837C22.7532 20.6706 22.979 20.5771 23.2145 20.5771H44.9403C45.3361 20.5771 45.5342 21.0557 45.2543 21.3354L40.9613 25.625C40.7947 25.7914 40.5689 25.8849 40.3335 25.8849H18.6076C18.2118 25.8849 18.0137 25.4063 18.2937 25.1266L22.5866 20.837Z" fill="black"/>
<path d="M40.9613 28.7975C40.7948 28.6311 40.569 28.5376 40.3335 28.5376H18.6076C18.2119 28.5376 18.0137 29.0162 18.2937 29.2959L22.5867 33.5855C22.7532 33.752 22.9791 33.8455 23.2145 33.8455H44.9404C45.3362 33.8455 45.5343 33.3669 45.2543 33.0871L40.9613 28.7975Z" fill="black"/>
</svg>
