<svg width="28" height="28" viewBox="0 0 28 28" fill="none" xmlns="http://www.w3.org/2000/svg">
<path d="M18.5254 21.7789C21.01 21.4848 23.4513 20.8984 25.7985 20.032C23.8107 17.8301 22.7123 14.9679 22.7167 12.0014V11.0679V11.0013C22.7167 8.87919 21.8737 6.84404 20.3732 5.34351C18.8726 3.84299 16.8375 3 14.7154 3C12.5934 3 10.5582 3.84299 9.05769 5.34351C7.55716 6.84404 6.71417 8.87919 6.71417 11.0013V12.0014C6.7182 14.968 5.61932 17.8303 3.63102 20.032C5.94205 20.8855 8.37843 21.4789 10.9055 21.7789M18.5254 21.7789C15.9943 22.0792 13.4366 22.0792 10.9055 21.7789M18.5254 21.7789C18.7175 22.3789 18.7653 23.0157 18.6648 23.6375C18.5643 24.2594 18.3184 24.8488 17.9471 25.3576C17.5758 25.8665 17.0895 26.2804 16.528 26.5658C15.9664 26.8512 15.3454 27 14.7154 27C14.0855 27 13.4645 26.8512 12.9029 26.5658C12.3413 26.2804 11.8551 25.8665 11.4837 25.3576C11.1124 24.8488 10.8665 24.2594 10.766 23.6375C10.6655 23.0157 10.7133 22.3789 10.9055 21.7789M2.87891 9.00094C3.25492 6.76722 4.25752 4.68619 5.77003 3M23.6608 3C25.1733 4.68619 26.1759 6.76722 26.5519 9.00094" stroke="white" stroke-width="1.5" stroke-linecap="round" stroke-linejoin="round"/>
</svg>
