<svg width="63" height="63" viewBox="0 0 63 63" fill="none" xmlns="http://www.w3.org/2000/svg">
<path d="M31.5001 0H31.5C14.2446 0 0.256348 13.9883 0.256348 31.2437V31.2438C0.256348 48.4992 14.2446 62.4875 31.5 62.4875H31.5001C48.7556 62.4875 62.7439 48.4992 62.7439 31.2438V31.2437C62.7439 13.9883 48.7556 0 31.5001 0Z" fill="white"/>
<path d="M26.0299 16.8334H18.7382C17.7314 16.8334 16.9153 17.6262 16.9153 18.6042V25.6876C16.9153 26.6656 17.7314 27.4584 18.7382 27.4584H26.0299C27.0367 27.4584 27.8528 26.6656 27.8528 25.6876V18.6042C27.8528 17.6262 27.0367 16.8334 26.0299 16.8334Z" stroke="black" stroke-width="2" stroke-linecap="round" stroke-linejoin="round"/>
<path d="M44.2577 16.8334H36.966C35.9592 16.8334 35.1431 17.6262 35.1431 18.6042V25.6876C35.1431 26.6656 35.9592 27.4584 36.966 27.4584H44.2577C45.2644 27.4584 46.0806 26.6656 46.0806 25.6876V18.6042C46.0806 17.6262 45.2644 16.8334 44.2577 16.8334Z" stroke="black" stroke-width="2" stroke-linecap="round" stroke-linejoin="round"/>
<path d="M26.0299 34.5417H18.7382C17.7314 34.5417 16.9153 35.3346 16.9153 36.3126V43.3959C16.9153 44.3739 17.7314 45.1668 18.7382 45.1668H26.0299C27.0367 45.1668 27.8528 44.3739 27.8528 43.3959V36.3126C27.8528 35.3346 27.0367 34.5417 26.0299 34.5417Z" stroke="black" stroke-width="2" stroke-linecap="round" stroke-linejoin="round"/>
<path d="M44.2577 34.5417H36.966C35.9592 34.5417 35.1431 35.3346 35.1431 36.3126V43.3959C35.1431 44.3739 35.9592 45.1668 36.966 45.1668H44.2577C45.2644 45.1668 46.0806 44.3739 46.0806 43.3959V36.3126C46.0806 35.3346 45.2644 34.5417 44.2577 34.5417Z" stroke="black" stroke-width="2" stroke-linecap="round" stroke-linejoin="round"/>
</svg>
