<svg width="24" height="24" viewBox="0 0 24 24" fill="none" xmlns="http://www.w3.org/2000/svg">
<path d="M5.63158 10.5484C9.30302 10.5483 11.9576 11.3059 14.8947 15.1935C16.6316 16.9355 14.46 18.1684 13.2851 17.5464L10.3488 14.4371C14.0193 18.3239 12.992 18.9459 20.628 18.324C22.0966 18.3238 22.3903 20.0346 20.628 20.6566C19.578 21.0272 17.5198 21.0481 15.6653 20.9497C13.5987 20.84 11.624 20.1411 9.81403 19.1347L9.36598 18.8856C8.4259 18.3629 7.41084 17.9892 6.35682 17.7777L5.05263 17.5161M20.1053 12.2903V11.129M21.2632 12.2903V10M12 6.48387V4.74194M13.1579 6.48387V3M1 9.3871H5.63158V18.6774H1V9.3871ZM2.15789 15.1935H4.47368V17.5161H2.15789V15.1935ZM14.8947 9.3871C14.8947 10.6698 13.8579 11.7097 12.5789 11.7097C11.3 11.7097 10.2632 10.6698 10.2632 9.3871C10.2632 8.10437 11.3 7.06452 12.5789 7.06452C13.8579 7.06452 14.8947 8.10437 14.8947 9.3871ZM23 15.1935C23 16.4763 21.9632 17.5161 20.6842 17.5161C19.4052 17.5161 18.3684 16.4763 18.3684 15.1935C18.3684 13.9108 19.4052 12.871 20.6842 12.871C21.9632 12.871 23 13.9108 23 15.1935ZM20.6842 8.22581C20.6842 9.50853 19.6474 10.5484 18.3684 10.5484C17.0894 10.5484 16.0526 9.50853 16.0526 8.22581C16.0526 6.94308 17.0894 5.90323 18.3684 5.90323C19.6474 5.90323 20.6842 6.94308 20.6842 8.22581Z" stroke="white" stroke-width="0.8"/>
</svg>
