<svg width="63" height="63" viewBox="0 0 63 63" fill="none" xmlns="http://www.w3.org/2000/svg">
<path d="M31.5001 0H31.5C14.2446 0 0.256348 13.9883 0.256348 31.2437V31.2438C0.256348 48.4992 14.2446 62.4875 31.5 62.4875H31.5001C48.7556 62.4875 62.7439 48.4992 62.7439 31.2438V31.2437C62.7439 13.9883 48.7556 0 31.5001 0Z" fill="white"/>
<path d="M40.798 21.1666H22.7147C21.2879 21.1666 20.1313 22.3232 20.1313 23.75V41.8333C20.1313 43.26 21.2879 44.4166 22.7147 44.4166H40.798C42.2247 44.4166 43.3813 43.26 43.3813 41.8333V23.75C43.3813 22.3232 42.2247 21.1666 40.798 21.1666Z" stroke="#333333" stroke-width="2" stroke-linecap="round" stroke-linejoin="round"/>
<path d="M36.9231 18.5834V23.75" stroke="#333333" stroke-width="2" stroke-linecap="round" stroke-linejoin="round"/>
<path d="M26.5896 18.5834V23.75" stroke="#333333" stroke-width="2" stroke-linecap="round" stroke-linejoin="round"/>
<path d="M20.1313 28.9166H43.3813M40.4985 32.9999H34.4985" stroke="#333333" stroke-width="2" stroke-linecap="round" stroke-linejoin="round"/>
</svg>
