<svg width="35" height="35" viewBox="0 0 35 35" fill="none" xmlns="http://www.w3.org/2000/svg">
<path d="M34.125 15.75H31.3775C30.9869 12.67 29.5836 9.80713 27.3882 7.61177C25.1929 5.41642 22.33 4.01309 19.25 3.6225V0.875C19.25 0.642936 19.1578 0.420376 18.9937 0.256282C18.8296 0.0921874 18.6071 0 18.375 0H16.625C16.3929 0 16.1704 0.0921874 16.0063 0.256282C15.8422 0.420376 15.75 0.642936 15.75 0.875V3.6225C12.67 4.01309 9.80713 5.41642 7.61177 7.61177C5.41642 9.80713 4.01309 12.67 3.6225 15.75H0.875C0.642936 15.75 0.420376 15.8422 0.256282 16.0063C0.0921874 16.1704 0 16.3929 0 16.625V18.375C0 18.6071 0.0921874 18.8296 0.256282 18.9937C0.420376 19.1578 0.642936 19.25 0.875 19.25H3.6225C4.01309 22.33 5.41642 25.1929 7.61177 27.3882C9.80713 29.5836 12.67 30.9869 15.75 31.3775V34.125C15.75 34.3571 15.8422 34.5796 16.0063 34.7437C16.1704 34.9078 16.3929 35 16.625 35H18.375C18.6071 35 18.8296 34.9078 18.9937 34.7437C19.1578 34.5796 19.25 34.3571 19.25 34.125V31.3775C22.33 30.9869 25.1929 29.5836 27.3882 27.3882C29.5836 25.1929 30.9869 22.33 31.3775 19.25H34.125C34.3571 19.25 34.5796 19.1578 34.7437 18.9937C34.9078 18.8296 35 18.6071 35 18.375V16.625C35 16.3929 34.9078 16.1704 34.7437 16.0063C34.5796 15.8422 34.3571 15.75 34.125 15.75ZM17.5 28C15.4233 28 13.3932 27.3842 11.6665 26.2304C9.9398 25.0767 8.59398 23.4368 7.79926 21.5182C7.00454 19.5996 6.79661 17.4884 7.20175 15.4516C7.6069 13.4148 8.60693 11.5438 10.0754 10.0754C11.5438 8.60693 13.4148 7.6069 15.4516 7.20175C17.4884 6.79661 19.5996 7.00454 21.5182 7.79926C23.4368 8.59398 25.0767 9.9398 26.2304 11.6665C27.3842 13.3932 28 15.4233 28 17.5C28 20.2848 26.8938 22.9555 24.9246 24.9246C22.9555 26.8938 20.2848 28 17.5 28ZM17.5 14C16.8078 14 16.1311 14.2053 15.5555 14.5899C14.9799 14.9744 14.5313 15.5211 14.2664 16.1606C14.0015 16.8001 13.9322 17.5039 14.0673 18.1828C14.2023 18.8617 14.5356 19.4854 15.0251 19.9749C15.5146 20.4644 16.1383 20.7977 16.8172 20.9327C17.4961 21.0678 18.1999 20.9985 18.8394 20.7336C19.4789 20.4687 20.0256 20.0201 20.4101 19.4445C20.7947 18.8689 21 18.1922 21 17.5C21 16.5717 20.6313 15.6815 19.9749 15.0251C19.3185 14.3687 18.4283 14 17.5 14Z" fill="#141414"/>
</svg>
